<?xml version="1.0" standalone="no"?>
<!DOCTYPE svg PUBLIC "-//W3C//DTD SVG 1.1//EN" "http://www.w3.org/Graphics/SVG/1.1/DTD/svg11.dtd" >
<svg>
<metadata>
Created by FontForge 20120731 at Fri Jul  5 16:11:12 2019
 By www
Copyright (c) 2010 by Aviation Partners. All rights reserved.
</metadata>
<defs>
<font id="CambridgeW01-Condensed" horiz-adv-x="412" >
  <font-face 
    font-family="CambridgeW01-Condensed"
    font-weight="400"
    font-stretch="condensed"
    units-per-em="1000"
    panose-1="2 0 5 6 3 0 0 2 0 3"
    ascent="800"
    descent="-200"
    x-height="474"
    cap-height="680"
    bbox="-46 -214 929 906"
    underline-thickness="50"
    underline-position="-125"
    unicode-range="U+0020-2122"
  />
<missing-glyph horiz-adv-x="532" 
d="M38 680h451v-886h-451v886zM464 655h-401v-836h401v836z" />
    <glyph glyph-name=".notdef" horiz-adv-x="532" 
d="M38 680h451v-886h-451v886zM464 655h-401v-836h401v836z" />
    <glyph glyph-name=".null" horiz-adv-x="0" 
 />
    <glyph glyph-name="nonmarkingreturn" horiz-adv-x="333" 
 />
    <glyph glyph-name="space" unicode=" " horiz-adv-x="193" 
 />
    <glyph glyph-name="exclam" unicode="!" horiz-adv-x="245" 
d="M99 195l-16 485h80l-16 -485h-48zM175 53q0 -29 -14 -45t-38 -16q-23 0 -37 16t-14 45q0 28 14 44t37 16q24 0 38 -16t14 -44z" />
    <glyph glyph-name="quotedbl" unicode="&#x22;" horiz-adv-x="337" 
d="M148 680l-18 -263h-53l-13 263h84zM273 680l-13 -263h-53l-18 263h84z" />
    <glyph glyph-name="numbersign" unicode="#" horiz-adv-x="540" 
d="M431 345l-31 -172h90v-72h-103l-26 -149l-70 12l24 137h-146l-26 -149l-70 12l24 137h-90v72h102l31 172h-90v72h102l26 148l71 -12l-25 -136h146l27 148l70 -12l-24 -136h90v-72h-102zM358 345h-146l-31 -172h146z" />
    <glyph glyph-name="dollar" unicode="$" horiz-adv-x="389" 
d="M213 394q22 -16 46 -36t44 -46t33.5 -58.5t13.5 -73.5q0 -38 -9.5 -69t-26 -54.5t-39.5 -39t-49 -21.5v-95h-70v95q-37 5 -67 21.5t-57 40.5l26 78q40 -35 69.5 -51t58.5 -16q38 0 59.5 29.5t21.5 75.5q0 25 -8 45.5t-20.5 37.5t-29 31t-33.5 27q-22 16 -45 36
t-41.5 44.5t-30 54.5t-11.5 67q0 69 31 110t77 55v98h70v-94q29 -3 53.5 -15.5t47.5 -31.5l-20 -76q-32 27 -59.5 38t-45.5 11q-30 0 -52 -23t-22 -69q0 -21 8 -39.5t20 -34t27 -28.5t30 -24z" />
    <glyph glyph-name="percent" unicode="%" horiz-adv-x="692" 
d="M124 0l385 680h59l-384 -680h-60zM153 268q-27 0 -48 15.5t-35.5 43t-22 66t-7.5 85.5q0 46 7.5 85t21.5 66.5t35.5 43t48.5 15.5t47.5 -15.5t35 -43t22 -66.5t7.5 -85q0 -47 -7.5 -85.5t-22 -66t-35 -43t-47.5 -15.5zM153 634q-13 0 -23.5 -12.5t-17.5 -33.5
t-10.5 -49.5t-3.5 -60.5t3.5 -60.5t10.5 -49.5t17.5 -33t23.5 -12q12 0 22 12t17 33t11 49.5t4 60.5t-4 60.5t-11 49.5t-17 33.5t-22 12.5zM540 -8q-27 0 -48 15.5t-35.5 43t-22 66t-7.5 85.5q0 46 7.5 85t22 66.5t35.5 43t48 15.5t48.5 -15.5t35.5 -43t21.5 -66.5t7.5 -85
q0 -47 -7.5 -85.5t-22 -66t-35.5 -43t-48 -15.5zM540 358q-12 0 -22 -12.5t-17 -33.5t-11 -49.5t-4 -60.5t4 -60.5t11 -49.5t17 -33t22 -12q13 0 23 12t17 33t11 49.5t4 60.5t-4 60.5t-11 49.5t-17 33.5t-23 12.5z" />
    <glyph glyph-name="ampersand" unicode="&#x26;" horiz-adv-x="557" 
d="M531 334q-29 -69 -56 -119.5t-58 -90.5l83 -124h-91q-1 1 -7.5 10t-14 20.5t-14.5 21.5t-8 12q-39 -38 -75.5 -55.5t-84.5 -17.5q-30 0 -57.5 12.5t-49 35t-34.5 54.5t-13 72q0 62 31.5 112.5t79.5 92.5v5q-25 35 -46 78.5t-21 85.5q0 36 11 64t29 47t42 28.5t50 9.5
t49.5 -10t41 -29.5t28 -47t10.5 -62.5q0 -51 -28 -96.5t-67 -80.5v-4l113 -169q20 29 41 67t45 92zM227 620q-23 0 -40.5 -19.5t-17.5 -55.5q0 -17 5 -33.5t13 -32t17 -30.5t18 -28q30 29 46.5 60.5t16.5 61.5q0 36 -16.5 56.5t-41.5 20.5zM211 60q33 0 59.5 15.5t55.5 47.5
l-125 188q-33 -33 -53 -68.5t-20 -75.5q0 -21 6.5 -40.5t17.5 -34.5t26.5 -23.5t32.5 -8.5z" />
    <glyph glyph-name="quotesingle" unicode="'" horiz-adv-x="236" 
d="M161 680l-16 -263h-53l-15 263h84z" />
    <glyph glyph-name="parenleft" unicode="(" horiz-adv-x="286" 
d="M255 679q-15 -25 -33.5 -66t-35 -96.5t-27.5 -126t-11 -154.5t11 -154.5t27.5 -126t35 -96.5t33.5 -66h-69q-55 93 -82.5 207t-27.5 236q0 123 27.5 236.5t82.5 206.5h69v0z" />
    <glyph glyph-name="parenright" unicode=")" horiz-adv-x="286" 
d="M100 679q56 -93 83.5 -206.5t27.5 -236.5q0 -122 -27.5 -236t-83.5 -207h-68q15 25 33.5 66t35 96.5t27.5 126t11 154.5t-11 154.5t-27.5 126t-35 96.5t-33.5 66h68z" />
    <glyph glyph-name="asterisk" unicode="*" horiz-adv-x="480" 
d="M460 545q-38 -11 -75 -21t-75 -20v-12q38 -10 75 -20t75 -21l-31 -76q-34 19 -67.5 38.5t-67.5 38.5l-8 -9l76 -135l-76 -31q-10 38 -20 75t-20 75h-13q-10 -38 -20 -75t-20 -75l-77 31q20 34 39 68t39 67l-9 9q-34 -19 -67.5 -38.5t-67.5 -38.5l-32 76q38 11 75.5 21
t75.5 20v12q-38 10 -75.5 20t-75.5 21l32 76q34 -20 67.5 -39t67.5 -38l9 8l-78 136l77 31q10 -38 20 -75t20 -75h13q10 38 20 75t20 75l76 -31l-76 -136l4 -4l4 -4q34 19 67.5 38t67.5 39l31 -76v0z" />
    <glyph glyph-name="plus" unicode="+" horiz-adv-x="540" 
d="M507 201h-201v-201h-72v201h-201v72h201v201h72v-201h201v-72z" />
    <glyph glyph-name="comma" unicode="," horiz-adv-x="224" 
d="M21 -156q27 47 46 101.5t19 111.5q0 19 10.5 36.5t34.5 17.5q23 0 33.5 -17.5t10.5 -36.5q0 -26 -9.5 -55.5t-24.5 -60.5t-34.5 -61.5t-38.5 -58.5z" />
    <glyph glyph-name="hyphen" unicode="-" horiz-adv-x="361" 
d="M318 198h-275v75h275v-75z" />
    <glyph glyph-name="period" unicode="." horiz-adv-x="216" 
d="M175 53q0 -29 -14 -45t-38 -16q-23 0 -37 16t-14 45q0 28 14 44t37 16q24 0 38 -16t14 -44z" />
    <glyph glyph-name="slash" unicode="/" horiz-adv-x="351" 
d="M262 680h66l-239 -752h-66z" />
    <glyph glyph-name="zero" unicode="0" horiz-adv-x="424" 
d="M212 688q43 0 77.5 -25.5t58 -71.5t36 -110.5t12.5 -141.5q0 -76 -12.5 -140t-36 -110t-57.5 -72t-78 -26t-78.5 26t-58 72t-36 110t-12.5 140q0 77 12.5 141.5t36 110.5t58 71.5t78.5 25.5zM212 71q22 0 40.5 21t31.5 57t20 85t7 105t-7 105t-20 85.5t-31.5 57.5
t-40.5 21t-40.5 -21t-31.5 -57.5t-20.5 -85.5t-7.5 -105t7.5 -105t20.5 -85t31.5 -57t40.5 -21z" />
    <glyph glyph-name="one" unicode="1" horiz-adv-x="424" 
d="M264 73h121v-73h-326v73h120v508l-120 -107l-21 76l155 130h71v-607z" />
    <glyph glyph-name="two" unicode="2" horiz-adv-x="424" 
d="M48 54q35 56 68.5 109t58.5 91q34 54 56 95.5t35.5 72.5t19 52.5t5.5 35.5q0 53 -25.5 76.5t-57.5 23.5q-29 0 -58 -17.5t-69 -62.5l-23 85q32 29 69 51t85 22q34 0 63.5 -11t51.5 -33.5t35 -57.5t13 -82q0 -36 -30 -109.5t-99 -183.5q-17 -26 -40 -62.5t-47 -75.5h216
v-73h-327v54v0z" />
    <glyph glyph-name="three" unicode="3" horiz-adv-x="424" 
d="M279 354q44 -17 70.5 -57.5t26.5 -105.5q0 -46 -14.5 -82.5t-39.5 -62.5t-59 -40t-74 -14t-75 14t-67 37l20 77q29 -22 59.5 -36t59.5 -14q22 0 41.5 8.5t34.5 24.5t23.5 38.5t8.5 50.5q0 59 -34.5 88t-107.5 29v78q30 0 53 10.5t38.5 27t23.5 37t8 40.5q0 46 -22 76.5
t-64 30.5q-20 0 -45.5 -11t-63.5 -38l-20 74q77 53 136 53q33 0 63 -12.5t52.5 -36t35.5 -56.5t13 -73q0 -43 -21 -84t-60 -65v-6v0z" />
    <glyph glyph-name="four" unicode="4" horiz-adv-x="424" 
d="M398 248v-74h-61v-174h-82v174h-230v69l232 437h80v-432h61zM255 422q0 33 1.5 67.5t3.5 56.5h-10q-30 -74 -68 -145.5t-76 -147.5v-8q4 0 13 0.5t20 1t23 1t22 0.5h71v174z" />
    <glyph glyph-name="five" unicode="5" horiz-adv-x="424" 
d="M199 454q39 0 72 -18t56 -49t36 -73t13 -90t-15 -90t-40.5 -73.5t-59.5 -50t-73 -18.5q-42 0 -77 10.5t-63 23.5l20 74q31 -14 58.5 -22t52.5 -8q22 0 42 12t35.5 33t25 49t9.5 60q0 69 -31.5 111t-81.5 42q-26 0 -48 -4.5t-50 -12.5l21 320h261v-72h-183l-11 -156
q8 1 15.5 1.5t15.5 0.5z" />
    <glyph glyph-name="six" unicode="6" horiz-adv-x="424" 
d="M224 453q40 -2 72 -18.5t55 -46.5t35.5 -72t12.5 -93q0 -53 -13.5 -95.5t-38 -72.5t-59 -46.5t-77.5 -16.5q-42 0 -76.5 16.5t-59 46.5t-38 72.5t-13.5 95.5q0 69 20 132t52.5 120t74 108.5t85.5 96.5h104q-45 -43 -97.5 -103.5t-94.5 -132.5l3 -5q14 8 27 11t26 3z
M211 70q48 0 75.5 41t27.5 112q0 70 -26.5 111.5t-75.5 41.5q-57 0 -80 -41t-23 -112q0 -69 27 -111t75 -42z" />
    <glyph glyph-name="seven" unicode="7" horiz-adv-x="424" 
d="M401 680v-58l-219 -622h-89l219 609h-209v-140h-72v211h370z" />
    <glyph glyph-name="eight" unicode="8" horiz-adv-x="424" 
d="M277 359q18 -15 36.5 -34t33.5 -42t24.5 -51t9.5 -61q0 -40 -13 -73t-35.5 -56.5t-53.5 -36.5t-68 -13q-36 0 -67 13t-53.5 36.5t-35.5 56.5t-13 73q0 30 9.5 58t24.5 52t33.5 43.5t36.5 32.5v4q-36 26 -63 67.5t-27 92.5q0 36 11 66.5t31 53t49 35t64 12.5
q36 0 64.5 -12.5t48.5 -35t31 -53t11 -66.5q0 -51 -26.5 -91.5t-62.5 -66.5v-4zM211 609q-36 0 -55 -26.5t-19 -65.5q0 -35 21 -63.5t53 -48.5q33 20 53.5 48.5t20.5 63.5q0 40 -18.5 66t-55.5 26zM211 69q42 0 64.5 29t22.5 75q0 45 -22.5 81t-64.5 59q-41 -23 -64 -59
t-23 -81q0 -46 22.5 -75t64.5 -29z" />
    <glyph glyph-name="nine" unicode="9" horiz-adv-x="424" 
d="M199 226q-40 1 -72 18t-55 47t-35.5 72t-12.5 93q0 53 13.5 96t38 73t59 46.5t76.5 16.5q43 0 77.5 -16.5t59 -47t38 -73.5t13.5 -95q0 -69 -20 -132t-52.5 -120t-74 -108t-85.5 -96h-104q45 42 97.5 102.5t94.5 132.5l-3 5q-14 -8 -27 -11t-26 -3zM211 609
q-47 0 -74.5 -41t-27.5 -112q0 -70 26.5 -111.5t75.5 -41.5q57 0 80 41t23 112q0 69 -27.5 111t-75.5 42z" />
    <glyph glyph-name="colon" unicode=":" horiz-adv-x="216" 
d="M175 370q0 -29 -14 -45t-38 -16q-23 0 -37 16t-14 45q0 28 14 44t37 16q24 0 38 -16t14 -44zM175 53q0 -29 -14 -45t-38 -16q-23 0 -37 16t-14 45q0 28 14 44t37 16q24 0 38 -16t14 -44z" />
    <glyph glyph-name="semicolon" unicode=";" horiz-adv-x="225" 
d="M182 370q0 -29 -13.5 -45.5t-37.5 -16.5q-23 0 -37.5 16.5t-14.5 45.5q0 27 14.5 43.5t37.5 16.5q24 0 37.5 -16.5t13.5 -43.5zM21 -156q27 47 46 101.5t19 111.5q0 19 10.5 36.5t34.5 17.5q23 0 33.5 -17.5t10.5 -36.5q0 -26 -9.5 -55.5t-24.5 -60.5t-34.5 -61.5
t-38.5 -58.5z" />
    <glyph glyph-name="less" unicode="&#x3c;" horiz-adv-x="540" 
d="M126 233q18 -7 43.5 -17.5t56 -24t63 -28t63.5 -28.5q73 -33 154 -72q-8 -17 -15 -32.5t-15 -31.5l-443 205v65l443 206q8 -17 15 -33t15 -33q-81 -38 -154 -71q-31 -14 -63.5 -29t-63 -28t-56 -24t-43.5 -17v-7v0z" />
    <glyph glyph-name="equal" unicode="=" horiz-adv-x="540" 
d="M507 372v-72h-474v72h474zM507 174v-72h-474v72h474z" />
    <glyph glyph-name="greater" unicode="&#x3e;" horiz-adv-x="540" 
d="M413 240q-18 7 -44 17.5t-56 24t-62.5 28t-63.5 28.5q-73 33 -154 72l30 65l443 -205v-66l-443 -205l-30 65q81 39 154 72q31 14 63.5 28.5t62.5 28t56 24t44 17.5v6z" />
    <glyph glyph-name="question" unicode="?" horiz-adv-x="325" 
d="M132 688q38 0 65 -11.5t44 -30.5t25 -43.5t8 -51.5t-7.5 -51.5t-19 -47t-25.5 -44t-26 -42.5q-14 -22 -23 -38.5t-15 -34.5t-8.5 -40.5t-2.5 -57.5h-52q-1 10 -1.5 20t-0.5 21q0 36 8.5 75.5t32.5 78.5q28 43 44.5 76.5t16.5 75.5q0 44 -22.5 61t-56.5 17
q-20 0 -37.5 -6.5t-29.5 -14.5l-17 64q13 8 40.5 16.5t59.5 8.5zM177 53q0 -29 -14 -45t-37 -16q-24 0 -38 16t-14 45q0 28 14 44t38 16q23 0 37 -16t14 -44z" />
    <glyph glyph-name="at" unicode="@" horiz-adv-x="761" 
d="M493 -44q4 -15 7.5 -29.5t8.5 -28.5q-29 -11 -62.5 -17.5t-68.5 -6.5q-80 0 -144 27.5t-108.5 76.5t-68.5 115t-24 143q0 76 24.5 142.5t69.5 116t109 77.5t143 28q76 0 139.5 -25.5t110 -70t72.5 -105t26 -131.5q0 -58 -15.5 -100t-40 -69t-54.5 -40t-59 -13
q-34 0 -62 21.5t-32 65.5h-6q-10 -24 -24.5 -40.5t-31.5 -27t-35.5 -15t-35.5 -4.5q-25 0 -46.5 8.5t-37.5 25.5t-25.5 43.5t-9.5 61.5q0 59 17 104.5t44 76t60 46.5t66 16q25 0 46 -5t39 -12.5t32.5 -16t25.5 -15.5q-5 -27 -9.5 -54.5t-8 -52.5t-5.5 -46t-2 -35
q0 -27 4.5 -43.5t12 -26t17 -13t18.5 -3.5q12 0 28 5.5t30.5 22.5t24.5 48t10 82q0 55 -17.5 105t-53 88t-88.5 60.5t-124 22.5q-63 0 -115 -22.5t-88.5 -62.5t-56.5 -96t-20 -122t19 -121.5t55 -95.5t88 -62t118 -22q32 0 60.5 6t53.5 15zM467 321q2 7 2 12.5v10.5
q-8 7 -25.5 15.5t-45.5 8.5q-18 0 -38.5 -11t-38 -33t-29 -55t-11.5 -76t19.5 -65.5t48.5 -22.5q27 0 48 21.5t36 53.5t23.5 70t10.5 71z" />
    <glyph glyph-name="A" unicode="A" horiz-adv-x="488" 
d="M389 0l-45 171h-201l-44 -171h-84l190 680h78l190 -680h-84zM326 243q-21 84 -38 153l-14 58t-13 52.5t-10 40.5t-4 22h-6q-1 -5 -4.5 -22t-9.5 -40.5t-13 -52.5l-14 -58q-17 -69 -38 -153h164z" />
    <glyph glyph-name="B" unicode="B" horiz-adv-x="456" 
d="M307 365q19 -6 39 -19t36.5 -34.5t27 -52t10.5 -69.5q0 -38 -9.5 -74t-33.5 -63.5t-66.5 -44t-108.5 -16.5q-51 0 -83 2.5t-49 5.5v680q16 2 46 5t82 3q55 0 91 -15.5t57 -40t29 -55t8 -59.5q0 -51 -22 -91t-54 -57v-5zM216 391q38 0 63 32t25 82q0 21 -4.5 41
t-15.5 35.5t-30 25.5t-49 10q-24 0 -35.5 -1t-20.5 -3v-222h67zM218 67q34 0 57 10.5t36 28.5t18.5 41.5t5.5 49.5q0 53 -28 87t-82 34h-76v-247q10 -2 26.5 -3t42.5 -1z" />
    <glyph glyph-name="C" unicode="C" horiz-adv-x="477" 
d="M452 49q-31 -25 -69.5 -41t-86.5 -16q-55 0 -102 25t-81.5 70.5t-54 109.5t-19.5 143t19.5 143t54 109.5t81.5 70.5t102 25q48 0 86.5 -16t69.5 -41l-21 -80q-34 29 -66.5 45t-65.5 16q-40 0 -72 -21t-55 -57.5t-35.5 -86.5t-12.5 -107t12.5 -107t35.5 -86.5t55 -57.5
t72 -21q33 0 65.5 16t66.5 45z" />
    <glyph glyph-name="D" unicode="D" horiz-adv-x="535" 
d="M207 688q75 0 129.5 -27.5t90 -74.5t52.5 -111t17 -136t-17.5 -135.5t-53.5 -110.5t-90.5 -74t-129.5 -27q-48 0 -81.5 3t-53.5 5v680q23 3 56 5.5t81 2.5zM219 68q90 0 142 70t52 201q0 134 -52 203.5t-142 69.5q-28 0 -45 -1.5t-25 -2.5v-536q9 -1 25.5 -2.5t44.5 -1.5
z" />
    <glyph glyph-name="E" unicode="E" horiz-adv-x="400" 
d="M69 680h292v-75h-213v-214h190v-73h-190v-244h216v-74h-295v680z" />
    <glyph glyph-name="F" unicode="F" horiz-adv-x="381" 
d="M69 680h284v-75h-205v-215h186v-72h-186v-318h-79v680z" />
    <glyph glyph-name="G" unicode="G" horiz-adv-x="535" 
d="M466 359v-340q-15 -5 -37 -10t-46 -8.5t-47 -6t-40 -2.5q-56 0 -103 25t-81 70.5t-53.5 109.5t-19.5 143q0 78 19.5 142.5t53.5 110t81 70.5t103 25q48 0 86 -16.5t70 -41.5l-21 -79q-35 29 -67.5 44.5t-65.5 15.5q-40 0 -72 -21t-54.5 -57.5t-35 -86t-12.5 -106.5
q0 -58 12.5 -107.5t35 -86t54.5 -57.5t72 -21q6 0 16 1t22 2.5t25 3.5t24 4v206h-95v74h176z" />
    <glyph glyph-name="H" unicode="H" horiz-adv-x="535" 
d="M69 680h79v-292h238v292h80v-680h-80v314h-238v-314h-79v680z" />
    <glyph glyph-name="I" unicode="I" horiz-adv-x="321" 
d="M45 67h75v545h-75v68h228v-68h-74v-545h74v-67h-228v67z" />
    <glyph glyph-name="J" unicode="J" horiz-adv-x="348" 
d="M279 144q0 -67 -35.5 -110t-94.5 -43q-32 0 -61.5 14.5t-55.5 37.5l32 74q14 -17 35.5 -30.5t42.5 -13.5q25 0 41 20.5t16 50.5v468h-119v68h199v-536v0z" />
    <glyph glyph-name="K" unicode="K" horiz-adv-x="472" 
d="M457 0h-94q-20 30 -47.5 74t-57 91.5t-57.5 92.5t-49 78h-4v-336h-79v680h79v-265h4q18 26 40.5 61.5t45.5 72.5t45 72t39 59h93l-201 -301z" />
    <glyph glyph-name="L" unicode="L" horiz-adv-x="386" 
d="M69 680h79v-607h220v-73h-299v680z" />
    <glyph glyph-name="M" unicode="M" horiz-adv-x="642" 
d="M576 0h-79q-3 125 -6 233q-1 46 -2 93t-1.5 88.5t-1 74.5t-0.5 52h-4l-160 -332l-162 332h-5q0 -19 -0.5 -52t-1.5 -74.5t-1.5 -88.5t-1.5 -93q-3 -108 -5 -233h-79l16 680h90l150 -308l148 308h90z" />
    <glyph glyph-name="N" unicode="N" horiz-adv-x="559" 
d="M489 680v-680h-86l-258 536h-4q1 -18 2 -37q1 -17 1.5 -37t0.5 -41v-421h-76v680h89q24 -52 56 -118.5t66.5 -138l69 -143t63.5 -132.5h4q0 11 -1 25q-1 11 -1.5 27t-1.5 34v446h76z" />
    <glyph glyph-name="O" unicode="O" horiz-adv-x="571" 
d="M285 688q58 0 104 -27t78 -74t48.5 -110.5t16.5 -136.5q0 -74 -17 -137.5t-48.5 -110.5t-77.5 -73.5t-104 -26.5t-104 26.5t-77.5 73.5t-48 110.5t-16.5 137.5q0 73 16.5 136.5t48 110.5t77.5 74t104 27zM285 71q38 0 68.5 19.5t51.5 54.5t32.5 85t11.5 110t-11.5 110
t-32.5 85.5t-51.5 55t-68.5 19.5t-68 -19.5t-51 -55t-32 -85.5t-11 -110t11 -110t32 -85t51 -54.5t68 -19.5z" />
    <glyph glyph-name="P" unicode="P" horiz-adv-x="426" 
d="M198 688q55 0 92.5 -19t60.5 -49.5t33 -70t10 -80.5q0 -50 -13 -90t-35.5 -67.5t-52.5 -42t-63 -14.5h-82v-255h-79v680q17 2 46.5 5t82.5 3zM216 329q43 0 69.5 38.5t26.5 102.5q0 27 -5.5 52.5t-18 45.5t-32.5 32t-50 12q-25 0 -37 -1t-21 -3v-279h68z" />
    <glyph glyph-name="Q" unicode="Q" horiz-adv-x="571" 
d="M344 2q11 -26 50.5 -43.5t100.5 -17.5l-25 -75q-46 1 -82 13.5t-62.5 31t-44 40.5t-25.5 43q-51 7 -91.5 36t-68.5 74.5t-42.5 106t-14.5 129.5q0 73 16.5 136.5t48 110.5t77 74t104.5 27q58 0 104 -27t78 -74t48.5 -110.5t16.5 -136.5q0 -64 -13 -120.5t-37 -101
t-59 -74.5t-79 -42zM123 340q0 -61 11 -110.5t32 -85t51 -54.5t68 -19t68.5 19t51.5 54.5t32.5 85t11.5 110.5q0 60 -11.5 110t-32.5 85.5t-51.5 55t-68.5 19.5t-68 -19.5t-51 -55t-32 -85.5t-11 -110z" />
    <glyph glyph-name="R" unicode="R" horiz-adv-x="449" 
d="M284 306q15 -10 30 -29t28.5 -44t26.5 -54.5t24 -59.5l45 -119h-87l-14 38q-6 17 -13 36t-13 38q-12 33 -25.5 64t-28 55t-30 39t-30.5 15h-48v-285h-79v680q16 2 45.5 5t82.5 3q55 0 91.5 -19t58 -49t30 -66t8.5 -69q0 -32 -9.5 -60.5t-24.5 -51t-33 -39t-35 -23.5v-5z
M201 357q49 0 76 34.5t27 91.5q0 22 -5 44.5t-16 41.5t-30 31t-47 12q-25 0 -36.5 -1t-20.5 -3v-251h52z" />
    <glyph glyph-name="S" unicode="S" horiz-adv-x="389" 
d="M213 393q21 -16 45.5 -35.5t44.5 -45.5t33.5 -58.5t13.5 -74.5q0 -44 -12.5 -78.5t-34 -58.5t-50.5 -37t-61 -13q-51 0 -89 17.5t-72 48.5l27 77q66 -61 118 -65q35 0 62.5 25t27.5 79q0 36 -16 62.5t-40.5 49t-53 44t-53 47t-40.5 59t-16 80.5q0 42 12.5 74t33.5 54
t49 33t58 11q37 0 67.5 -13t59.5 -36l-20 -76q-32 26 -59.5 37.5t-45.5 11.5q-12 0 -25.5 -6t-24.5 -17.5t-18 -29t-7 -40.5q0 -21 8 -39.5t20.5 -34t27.5 -28.5t30 -24z" />
    <glyph glyph-name="T" unicode="T" horiz-adv-x="415" 
d="M400 605h-152v-605h-79v605h-154v75h385v-75z" />
    <glyph glyph-name="U" unicode="U" horiz-adv-x="546" 
d="M477 680v-469q0 -50 -16 -90t-43.5 -69t-64.5 -44.5t-80 -15.5q-42 0 -79 15.5t-64.5 44.5t-43.5 69t-16 90v469h79v-471q0 -31 9.5 -56.5t26.5 -43.5t39.5 -28t48.5 -10t49 10t39.5 28t26 43.5t9.5 56.5v471h80z" />
    <glyph glyph-name="V" unicode="V" horiz-adv-x="498" 
d="M480 680l-191 -680h-81l-190 680h85q37 -140 68 -255q13 -49 26 -97.5t23.5 -89t17 -69.5t8.5 -39h6q1 10 8 39t17.5 69.5t23 89t25.5 97.5q31 115 69 255h85z" />
    <glyph glyph-name="W" unicode="W" horiz-adv-x="762" 
d="M744 680l-136 -680h-94q-35 130 -62 238q-12 46 -23.5 92t-21 84.5t-16 67t-8.5 39.5h-6q-2 -11 -8 -39.5t-15.5 -67t-21 -84.5t-23.5 -92q-27 -108 -61 -238h-95l-135 680h84q25 -138 46 -252q9 -48 17.5 -96t15.5 -88t12 -68.5t7 -38.5h6q1 10 7.5 38.5t16.5 68.5
l22 88l24 96q29 114 65 252h79q35 -138 64 -252q12 -48 24.5 -96t22 -88t16 -68.5t8.5 -38.5h6q1 10 6 38.5t12 68.5t16 88l18 96q21 114 47 252h84z" />
    <glyph glyph-name="X" unicode="X" horiz-adv-x="505" 
d="M495 0h-93q-31 57 -59 110q-12 22 -25 46t-25 46t-22.5 41.5t-17.5 34.5h-4q-8 -15 -18.5 -34.5t-22.5 -41.5t-25 -46t-25 -46q-29 -53 -60 -110h-91l197 356l-181 324h93q26 -50 52 -97q21 -40 43.5 -82t36.5 -68h5q14 26 35.5 68t43.5 82q25 47 53 97h92l-181 -325z
" />
    <glyph glyph-name="Y" unicode="Y" horiz-adv-x="446" 
d="M263 293v-293h-80v295l-165 385h87q29 -72 54 -132q10 -26 20.5 -51.5t19 -47t14 -37.5t7.5 -23h5q1 7 7 23t14.5 37.5t18.5 47t21 51.5l55 132h87z" />
    <glyph glyph-name="Z" unicode="Z" horiz-adv-x="459" 
d="M138 81v-6h282v-75h-381v55l268 546v7l-53 -3h-207v75h359v-55l-241 -498z" />
    <glyph glyph-name="bracketleft" unicode="[" horiz-adv-x="238" 
d="M216 620h-88v-766h88v-60h-154v886h154v-60z" />
    <glyph glyph-name="backslash" unicode="\" horiz-adv-x="351" 
d="M262 -72l-239 752h66l239 -752h-66z" />
    <glyph glyph-name="bracketright" unicode="]" horiz-adv-x="238" 
d="M23 680h153v-886h-153v60h87v766h-87v60z" />
    <glyph glyph-name="asciicircum" unicode="^" horiz-adv-x="541" 
d="M509 217h-73l-163 387h-5q-41 -97 -81 -193.5t-82 -193.5h-74l207 468h64z" />
    <glyph glyph-name="underscore" unicode="_" horiz-adv-x="403" 
d="M4 -140v63h395v-63h-395z" />
    <glyph glyph-name="grave" unicode="`" horiz-adv-x="323" 
d="M153 680l94 -136h-56q-1 1 -18 20.5t-38 44t-39 46t-21 25.5h78z" />
    <glyph glyph-name="a" unicode="a" 
d="M298 54h-7q-15 -30 -43 -45.5t-60 -15.5q-36 0 -64.5 17.5t-49 50t-31.5 77.5t-11 99q0 55 12 100t33.5 77t51 50t64.5 18q26 0 52 -9t51 -33l6 34h54v-289q0 -34 2.5 -67t5.5 -59q4 -31 8 -59h-64zM281 374q-11 14 -31.5 26.5t-43.5 12.5q-45 0 -70 -49t-25 -127
q0 -79 23.5 -128.5t68.5 -49.5q16 0 29.5 9t23 22t16 28.5t9.5 29.5v226z" />
    <glyph glyph-name="b" unicode="b" horiz-adv-x="414" 
d="M213 482q39 0 69.5 -18t52.5 -50t33.5 -77.5t11.5 -99.5q0 -55 -11.5 -100t-33 -77.5t-53 -50t-70.5 -17.5q-34 0 -76 6.5t-78 17.5v664h74v-238h4q14 22 35.5 31t41.5 9zM208 60q45 0 70 49t25 128q0 78 -25.5 127.5t-70.5 49.5q-29 0 -47 -17t-28 -34v-292
q11 -4 32 -7.5t44 -3.5z" />
    <glyph glyph-name="c" unicode="c" horiz-adv-x="354" 
d="M213 62q31 0 51.5 10t43.5 22l18 -66q-24 -15 -54 -25.5t-65 -10.5q-32 0 -63.5 14t-56 44t-39.5 76.5t-15 110.5t15 110.5t39.5 76.5t56 44t63.5 14q35 0 65 -10.5t54 -24.5l-18 -68q-23 14 -43.5 23.5t-51.5 9.5q-49 0 -75 -48t-26 -127t26 -127t75 -48z" />
    <glyph glyph-name="d" unicode="d" 
d="M356 186q0 -34 2.5 -67t5.5 -59q4 -31 8 -60h-63l-10 55h-7q-16 -29 -43 -46t-58 -17q-37 0 -66 18t-49.5 50t-31.5 77.5t-11 99.5q0 55 12 100t33 77.5t50.5 50t64.5 17.5q22 0 44 -6t44 -24v227h75v-493zM203 60q16 0 29.5 9t23 22.5t16 29t9.5 29.5v224
q-10 14 -30.5 27t-44.5 13q-45 0 -70 -49t-25 -128q0 -78 23.5 -127.5t68.5 -49.5z" />
    <glyph glyph-name="e" unicode="e" horiz-adv-x="384" 
d="M207 419q-22 0 -38.5 -11.5t-28.5 -31t-19 -45.5t-10 -56h170q0 5 0.5 10t0.5 10q0 54 -19 89t-56 35zM209 59q35 0 61 10.5t53 25.5l18 -64q-24 -15 -59.5 -27t-74.5 -12q-32 0 -63.5 14t-56 44t-39.5 76.5t-15 110.5t15 110.5t39.5 76.5t56 44t63.5 14q66 0 105 -51.5
t39 -150.5q0 -16 -0.5 -31.5t-1.5 -30.5h-238q2 -70 27 -114.5t71 -44.5z" />
    <glyph glyph-name="f" unicode="f" horiz-adv-x="236" 
d="M193 617q-31 0 -43.5 -18t-12.5 -43v-82h79v-63h-79v-411h-74v411h-37v63h37v86q0 60 27.5 94t84.5 34q21 0 47.5 -4t49.5 -14l-17 -64q-17 6 -33 8.5t-29 2.5z" />
    <glyph glyph-name="g" unicode="g" horiz-adv-x="414" 
d="M356 474v-524q0 -77 -41 -120.5t-106 -43.5q-13 0 -31 2.5t-37 7t-38 10.5t-34 12l17 68q29 -14 62.5 -23t53.5 -9q43 0 61 25t18 66v95h-5q-15 -18 -36 -25.5t-39 -7.5q-78 0 -123 60.5t-45 169.5q0 55 11.5 100t33.5 77.5t52 50t68 17.5q23 0 46.5 -9t46.5 -33l5 34h60
zM281 374q-10 14 -30.5 27t-44.5 13q-45 0 -70 -49t-25 -128q0 -78 25.5 -121t70.5 -43q29 0 47 16t27 32v253z" />
    <glyph glyph-name="h" unicode="h" horiz-adv-x="405" 
d="M223 482q63 0 94 -34.5t31 -110.5v-337h-75v334q0 45 -17 62t-51 17q-26 0 -45.5 -17t-29.5 -36v-360h-74v680h74v-248q16 23 41.5 36.5t51.5 13.5z" />
    <glyph glyph-name="i" unicode="i" horiz-adv-x="182" 
d="M54 0v474h74v-474h-74zM135 599q0 -24 -11 -38t-32 -14q-20 0 -32 14t-12 38q0 23 12 37t32 14q21 0 32 -14t11 -37z" />
    <glyph glyph-name="j" unicode="j" horiz-adv-x="185" 
d="M136 599q0 -24 -11 -38t-32 -14q-20 0 -32 14t-12 38q0 23 12 37t32 14q21 0 32 -14t11 -37zM129 474v-514q0 -77 -39.5 -120.5t-108.5 -53.5l-17 68q27 3 44.5 13.5t28 26t14.5 35.5t4 43v502h74z" />
    <glyph glyph-name="k" unicode="k" horiz-adv-x="362" 
d="M350 0h-91q-33 63 -59 116q-11 22 -22 44.5t-20 41t-15.5 32t-7.5 18.5h-5v-252h-74v680h74v-371h5q2 4 7.5 13.5t14 21.5t18.5 26.5t20 29.5q24 33 52 74h85q-35 -49 -69 -96.5t-69 -95.5z" />
    <glyph glyph-name="l" unicode="l" horiz-adv-x="250" 
d="M246 2q-19 -5 -38 -7.5t-36 -2.5q-57 0 -85.5 32t-28.5 93v563h74v-554q0 -26 12 -44.5t44 -18.5q8 0 18 2t21 5z" />
    <glyph glyph-name="m" unicode="m" horiz-adv-x="614" 
d="M435 482q26 0 48.5 -6.5t39 -23t25.5 -44t9 -69.5v-339h-73v333q0 36 -13 56.5t-46 20.5t-51.5 -15.5t-30.5 -34.5v-360h-72v333q0 36 -13 56.5t-46 20.5q-32 0 -50.5 -15t-31.5 -35v-360h-74v474h62l6 -42h5q18 24 43.5 37t54.5 13q35 0 60.5 -13.5t39.5 -42.5h8
q18 27 46 41.5t54 14.5z" />
    <glyph glyph-name="n" unicode="n" horiz-adv-x="405" 
d="M223 482q63 0 94 -34.5t31 -110.5v-337h-75v333q0 45 -17 62.5t-51 17.5q-26 0 -45 -17.5t-30 -35.5v-360h-74v474h63q2 -11 3 -21t2 -21h7q16 23 41 36.5t51 13.5z" />
    <glyph glyph-name="o" unicode="o" 
d="M206 482q32 0 63 -14t55.5 -44t39.5 -76.5t15 -110.5t-15 -110.5t-39.5 -76.5t-55.5 -44t-63 -14t-63.5 14t-56 44t-39.5 76.5t-15 110.5t15 110.5t39.5 76.5t56 44t63.5 14zM206 60q45 0 70.5 48.5t25.5 128.5t-25.5 128.5t-70.5 48.5q-46 0 -71 -48.5t-25 -128.5
t25 -128.5t71 -48.5z" />
    <glyph glyph-name="p" unicode="p" horiz-adv-x="411" 
d="M56 -206v680h62l5 -33h5q18 22 40 31.5t44 9.5q38 0 69 -18t52.5 -50t33.5 -77.5t12 -99.5q0 -55 -11.5 -100t-33 -77.5t-52 -50t-67.5 -17.5q-21 0 -42 6.5t-43 26.5v-231h-74zM206 414q-29 0 -47 -17t-29 -34v-263q11 -14 32 -27t44 -13q45 0 70 49t25 128
q0 78 -25 127.5t-70 49.5z" />
    <glyph glyph-name="q" unicode="q" horiz-adv-x="416" 
d="M199 -8q-38 0 -69 18t-53 50t-33.5 77.5t-11.5 99.5q0 55 11.5 100t33 77.5t53 50t71.5 17.5q34 0 76 -6.5t78 -17.5v-602h80v-62h-155v238h-4q-14 -22 -35.5 -31t-41.5 -9zM205 414q-45 0 -70 -49t-25 -128q0 -78 25 -127.5t71 -49.5q29 0 47 17t27 34v292
q-11 4 -32 7.5t-43 3.5z" />
    <glyph glyph-name="r" unicode="r" horiz-adv-x="303" 
d="M274 381q-11 7 -28.5 14t-31.5 9q-14 0 -29 -5.5t-27 -16t-20 -26t-8 -34.5v-322h-74v474h59q1 -12 2 -23.5t3 -23.5h7q17 25 42.5 40t54.5 15q19 0 36 -6t35 -15z" />
    <glyph glyph-name="s" unicode="s" horiz-adv-x="304" 
d="M273 136q0 -36 -10.5 -63t-28 -45t-40.5 -27t-49 -9q-36 0 -67 11t-60 28l22 70q24 -16 48 -28.5t51 -12.5q23 0 39 16.5t16 53.5q0 29 -19 46.5t-42 31.5q-17 10 -35 23t-33.5 30t-25.5 38t-10 48q0 33 10 58t26.5 42.5t38 26t45.5 8.5q27 0 55.5 -11t54.5 -26l-20 -70
q-23 17 -45.5 28t-39.5 11q-20 0 -33 -16.5t-13 -42.5q0 -27 19 -46t48 -38q17 -11 34.5 -23t31.5 -27.5t23 -36t9 -48.5z" />
    <glyph glyph-name="t" unicode="t" horiz-adv-x="283" 
d="M273 9q-24 -9 -50.5 -13t-47.5 -4q-57 0 -84.5 33t-27.5 93v293h-37v63h37v74l74 34v-108h94v-63h-94v-283q0 -26 13 -44.5t44 -18.5q28 0 61 13z" />
    <glyph glyph-name="u" unicode="u" horiz-adv-x="405" 
d="M181 -8q-63 0 -94 34t-31 110v338h74v-334q0 -45 17 -62.5t52 -17.5q26 0 45.5 17.5t28.5 35.5v361h75v-474h-63q-1 11 -2 20.5t-3 20.5h-7q-15 -23 -40.5 -36t-51.5 -13z" />
    <glyph glyph-name="v" unicode="v" horiz-adv-x="369" 
d="M351 474q-33 -119 -65.5 -237t-64.5 -237h-75l-129 474h78q7 -27 16.5 -61.5t18.5 -71.5t17.5 -73.5t15.5 -67t11.5 -52.5t5.5 -29h6q0 7 4.5 29t12 52.5t16 67t18 73.5t18.5 71.5t16 61.5h80z" />
    <glyph glyph-name="w" unicode="w" horiz-adv-x="548" 
d="M530 474l-94 -474h-78q-23 90 -41 163q-8 31 -15.5 61.5t-13 56t-9.5 43t-4 22.5h-4l-4.5 -22.5t-9.5 -43t-13.5 -56t-14.5 -61.5q-18 -73 -40 -163h-79l-93 474h75q5 -27 11.5 -61.5t13 -71.5t12.5 -73.5t11 -67t8 -52.5t4 -29h5q1 7 5.5 29t11.5 52.5t16 67t18 73.5
t17.5 71.5t15.5 61.5h65q10 -40 24 -96.5t26.5 -110t21.5 -95.5t11 -53h5q1 11 7.5 53t15.5 95.5t19 110t18 96.5h76z" />
    <glyph glyph-name="x" unicode="x" horiz-adv-x="382" 
d="M233 255q35 -64 70.5 -128t71.5 -127h-84q-9 17 -22 41t-26.5 49.5t-26.5 50.5t-23 45h-5q-9 -20 -22 -45t-26.5 -50.5t-26.5 -49.5t-23 -41h-83l141 255q-30 55 -60.5 109.5t-61.5 109.5h86q7 -14 17 -33.5t21 -40.5t21 -42t17 -37h5q7 16 17.5 37l21 42t20.5 40.5
t18 33.5h86l-123 -219v0z" />
    <glyph glyph-name="y" unicode="y" horiz-adv-x="366" 
d="M349 474l-153 -539q-22 -63 -62 -96.5t-102 -52.5l-17 68q44 14 76 42t46 83l8 31q-32 116 -64.5 231.5t-65.5 232.5h79q7 -27 16.5 -61.5t18.5 -71.5t17.5 -73.5t15.5 -67t11.5 -52.5t5.5 -29h6q1 7 5 29t11.5 52.5t16 67t18 73.5t18.5 71.5t16 61.5h79z" />
    <glyph glyph-name="z" unicode="z" horiz-adv-x="346" 
d="M128 64h186v-64h-283v35q46 94 91 187t91 187h-177v65h269v-45z" />
    <glyph glyph-name="braceleft" unicode="{" horiz-adv-x="267" 
d="M172 -29q0 -55 16 -81t55 -36q-2 -11 -5 -29t-7 -31q-54 5 -88 44.5t-34 121.5q0 13 1 30.5t2 34.5t2 32.5t1 26.5q0 45 -18 79t-66 42v62q48 8 66 42t18 81q0 10 -1 26t-2 34t-2 35.5t-1 30.5q0 81 34 120t88 44q4 -12 7 -30.5t5 -29.5q-40 -10 -55.5 -35.5t-15.5 -80.5
q0 -10 1 -25t2 -32.5t2 -34t1 -29.5q0 -52 -16 -87.5t-55 -59.5q40 -22 55.5 -59t15.5 -88q0 -12 -1 -28.5t-2 -33.5t-2 -32t-1 -24z" />
    <glyph glyph-name="bar" unicode="|" horiz-adv-x="207" 
d="M73 -206v886h62v-886h-62z" />
    <glyph glyph-name="braceright" unicode="}" horiz-adv-x="266" 
d="M94 -29q0 10 -1.5 25t-3 32.5t-2.5 34t-1 29.5q0 51 16 87.5t57 57.5q-40 23 -56.5 58.5t-16.5 86.5q0 13 1 30t2.5 34t3 32.5t1.5 25.5q0 55 -16 80.5t-56 35.5q3 11 5.5 29.5t6.5 30.5q27 -2 49.5 -13t39 -31t25.5 -50t9 -70q0 -14 -1 -31.5t-2.5 -35t-2.5 -33
t-1 -25.5q0 -23 4 -43.5t14 -37t26 -27.5t39 -15v-62q-47 -8 -65 -42t-18 -79q0 -11 1 -26.5t2.5 -33t2.5 -35t1 -30.5q0 -41 -9.5 -71.5t-26 -50.5t-39 -31t-48.5 -13q-4 13 -6.5 31t-5.5 29q39 10 55.5 36t16.5 81z" />
    <glyph glyph-name="asciitilde" unicode="~" horiz-adv-x="538" 
d="M251 284q-34 19 -61 30.5t-48 11.5q-26 0 -40 -20.5t-14 -65.5h-64q0 78 31 117.5t85 39.5q15 0 29 -2.5t30 -7.5t34.5 -14.5t44.5 -22.5q41 -21 69 -32.5t52 -11.5q52 0 52 86h64q-1 -86 -32.5 -121.5t-82.5 -35.5q-29 0 -62 11t-87 38z" />
    <glyph glyph-name="exclamdown" unicode="&#xa1;" horiz-adv-x="234" 
d="M88 279h49l16 -485h-80zM61 421q0 29 13.5 45t38.5 16q23 0 37.5 -16t14.5 -45q0 -28 -14.5 -44t-37.5 -16q-25 0 -38.5 16t-13.5 44z" />
    <glyph glyph-name="cent" unicode="&#xa2;" horiz-adv-x="353" 
d="M214 517q-48 0 -74.5 -48.5t-26.5 -128.5t26.5 -128.5t74.5 -48.5q31 0 52 10t44 23l18 -65q-18 -11 -39.5 -20.5t-46.5 -12.5v-98h-69v99q-30 6 -55 24t-44 48.5t-29.5 72.5t-10.5 96q0 53 10.5 95t29.5 72.5t44 49t55 24.5v99h69v-98q25 -4 46.5 -12.5t39.5 -19.5
l-18 -66q-23 13 -44 23t-52 10z" />
    <glyph glyph-name="sterling" unicode="&#xa3;" horiz-adv-x="436" 
d="M158 73h237v-73h-355v73h38l37 234h-75v67h86l22 143q7 42 24.5 73.5t41.5 53.5t53.5 33t60.5 11q48 0 83 -22l-21 -81q-23 16 -40.5 21.5t-31.5 5.5q-31 0 -57.5 -24.5t-33.5 -70.5l-21 -143h150v-67h-161z" />
    <glyph glyph-name="currency" unicode="&#xa4;" horiz-adv-x="540" 
d="M453 419q21 -29 32.5 -62.5t11.5 -70.5t-11.5 -70.5t-32.5 -62.5q14 -14 29 -28.5t29 -29.5q-13 -13 -25.5 -25t-24.5 -25l-59 58q-28 -22 -62 -33.5t-70 -11.5q-75 0 -134 45l-58 -58q-12 13 -24.5 25t-25.5 25l58 58q-21 29 -32.5 62.5t-11.5 70.5t11.5 70.5t32.5 62.5
q-14 15 -29 29.5t-29 28.5q13 13 25.5 25t24.5 25l58 -57q29 21 62.5 32.5t71.5 11.5q36 0 70 -11.5t62 -32.5l59 57q12 -13 24.5 -25t25.5 -25q-14 -14 -29 -28.5t-29 -29.5zM270 128q30 0 58.5 13.5t50.5 35.5t35.5 50.5t13.5 58.5q0 33 -12.5 61.5t-34 50t-50.5 34
t-61 12.5q-33 0 -62 -12.5t-50 -34t-33.5 -50t-12.5 -61.5t12.5 -61.5t34 -50t50 -34t61.5 -12.5z" />
    <glyph glyph-name="yen" unicode="&#xa5;" horiz-adv-x="478" 
d="M341 440h72v-55h-95l-30 -69l-5 -21h130v-54h-135v-241h-79v241h-134v54h128l-5 23l-29 67h-94v55h71l-103 240h88q29 -72 54 -132q10 -26 20 -51.5t18.5 -47t14 -37.5t7.5 -23h6q1 7 7 23t14.5 37.5t18.5 47t21 51.5l55 132h87z" />
    <glyph glyph-name="brokenbar" unicode="&#xa6;" horiz-adv-x="189" 
d="M63 680h63v-368h-63v368zM63 161h63v-367h-63v367z" />
    <glyph glyph-name="section" unicode="&#xa7;" horiz-adv-x="348" 
d="M224 419q15 -12 31 -26t28.5 -32t20.5 -40.5t8 -51.5q0 -44 -14.5 -77t-26.5 -51v-4q11 -22 18 -43.5t7 -55.5q-5 -69 -45 -111t-103 -42q-33 0 -62.5 13t-46.5 25q5 18 9.5 36t9.5 36q4 -3 13.5 -9.5t22.5 -13t27 -11.5t27 -5q35 0 55 25t20 70q0 18 -7 33.5t-17.5 28.5
t-23.5 23.5t-25 19.5q-17 11 -37 26t-37 35.5t-29 47t-12 60.5q0 42 15.5 75.5t29.5 52.5v4q-10 18 -15.5 37.5t-5.5 41.5q0 34 11.5 62.5t30.5 48t43.5 30.5t50.5 11q30 0 56.5 -9.5t42.5 -17.5l-18 -71q-4 3 -12.5 7.5t-19.5 9t-24 7.5t-25 3q-21 0 -40.5 -19.5
t-19.5 -62.5q0 -20 7 -36t19.5 -29.5t28.5 -25.5t34 -25zM127 404q-6 -13 -12.5 -33.5t-6.5 -39.5q0 -21 6 -37.5t16 -29.5t23.5 -24t29.5 -23q10 -8 20.5 -15.5t19.5 -12.5q5 13 11 33t6 44q0 27 -9.5 45.5t-25.5 33t-36.5 28t-41.5 31.5z" />
    <glyph glyph-name="dieresis" unicode="&#xa8;" horiz-adv-x="319" 
d="M201 611q0 20 13 33.5t32 13.5t31.5 -13.5t12.5 -33.5t-13.5 -33t-32.5 -13q-18 0 -30.5 13t-12.5 33zM27 611q0 20 12.5 33.5t32.5 13.5q18 0 31 -13.5t13 -33.5q0 -19 -13.5 -32.5t-31.5 -13.5q-19 0 -31.5 13t-12.5 33z" />
    <glyph glyph-name="copyright" unicode="&#xa9;" horiz-adv-x="765" 
d="M382 687q72 0 135.5 -27t110.5 -74.5t74.5 -111t27.5 -135.5t-27.5 -135t-74.5 -110.5t-110.5 -74.5t-135.5 -27t-135.5 27t-110.5 74.5t-74.5 110.5t-27.5 135t27.5 135.5t74.5 111t110.5 74.5t135.5 27zM382 47q60 0 113.5 23t93 62.5t62.5 93t23 113.5q0 61 -23 114
t-62.5 92.5t-93 62.5t-113.5 23t-113.5 -23t-93 -62.5t-62.5 -92.5t-23 -114q0 -60 23 -113.5t62.5 -93t93 -62.5t113.5 -23zM390 197q32 0 57.5 9.5t51.5 20.5l15 -54q-24 -12 -57 -21t-70 -9q-39 0 -73 12.5t-59 37t-39 61t-14 85.5t14 86t39 61.5t59 36.5t73 12
q37 0 70 -8.5t57 -19.5l-15 -55q-26 11 -51.5 20t-57.5 9q-52 0 -86.5 -38t-34.5 -104q0 -65 34.5 -103.5t86.5 -38.5z" />
    <glyph glyph-name="ordfeminine" unicode="&#xaa;" horiz-adv-x="308" 
d="M249 340q0 -12 6 -21t17 -11l-6 -22t-7 -22q-17 0 -31.5 7t-22.5 24q-12 -14 -28.5 -22.5t-31.5 -8.5q-51 0 -80.5 44t-29.5 116t29.5 115.5t78.5 43.5q16 0 29.5 -4.5t28.5 -16.5v7.5t2 8.5h46v-238zM194 509q-8 8 -20 16t-25 8q-27 0 -42 -30t-15 -79q0 -50 15.5 -80
t41.5 -30q17 0 28 9.5t17 19.5v166z" />
    <glyph glyph-name="guillemotleft" unicode="&#xab;" horiz-adv-x="519" 
d="M161 0l-134 237l134 237h82l-134 -237l134 -237h-82zM409 0l-135 237l135 237h82l-134 -237l134 -237h-82z" />
    <glyph glyph-name="logicalnot" unicode="&#xac;" horiz-adv-x="540" 
d="M507 372v-234h-72v162h-402v72h474z" />
    <glyph glyph-name="registered" unicode="&#xae;" horiz-adv-x="513" 
d="M256 688q46 0 86.5 -17.5t70.5 -47.5t47.5 -70.5t17.5 -86.5t-17.5 -86.5t-47.5 -70.5t-70.5 -47.5t-86.5 -17.5t-86.5 17.5t-70.5 47.5t-47.5 70.5t-17.5 86.5t17.5 86.5t47.5 70.5t70.5 47.5t86.5 17.5zM256 288q37 0 69.5 14t56.5 38t38 56.5t14 69.5t-14 69.5
t-38 56.5t-56.5 38t-69.5 14q-36 0 -68.5 -14t-57 -38t-38.5 -56.5t-14 -69.5t14 -69.5t38.5 -56.5t57 -38t68.5 -14zM245 475q25 0 39 12t14 32q0 16 -10.5 30.5t-39.5 14.5q-19 0 -29 -2v-87h26zM293 450q14 -8 25.5 -25.5t24.5 -44.5l22 -46h-50l-6 14q-3 6 -6 13.5
t-6 14.5q-11 26 -24.5 45t-29.5 19h-24v-108h-43v265q10 1 26 2t42 1q28 0 46.5 -7t29.5 -18.5t16 -25.5t5 -28q0 -24 -15.5 -42t-32.5 -25v-4z" />
    <glyph glyph-name="macron" unicode="&#xaf;" horiz-adv-x="319" 
d="M276 638v-56h-234v56h234z" />
    <glyph glyph-name="degree" unicode="&#xb0;" horiz-adv-x="357" 
d="M179 688q31 0 58 -11.5t47 -32t32 -47.5t12 -58t-12 -58t-32 -47.5t-47 -32t-58 -11.5t-58 11.5t-47.5 32t-32 47.5t-11.5 58t11.5 58t32 47.5t47.5 32t58 11.5zM179 446q19 0 36 7t29.5 20t20 29.5t7.5 36.5q0 19 -7.5 36t-20 30t-29.5 20t-36 7q-39 0 -66.5 -27
t-27.5 -66t27.5 -66t66.5 -27z" />
    <glyph glyph-name="plusminus" unicode="&#xb1;" horiz-adv-x="540" 
d="M507 262h-201v-141h-72v141h-201v71h201v141h72v-141h201v-71zM507 71v-71h-474v71h474z" />
    <glyph glyph-name="uni00B2" unicode="&#xb2;" horiz-adv-x="282" 
d="M41 506q20 31 36 57q14 22 25.5 40.5t13.5 20.5q38 63 52 98.5t14 50.5q0 30 -13.5 44.5t-30.5 14.5q-14 0 -31.5 -13t-43.5 -42l-17 60q20 19 43 33.5t51 14.5q43 0 72 -28.5t29 -86.5q0 -23 -17.5 -67t-58.5 -109q-12 -21 -22 -37q-8 -14 -16 -25.5t-9 -13.5h123v-50
h-200v38v0z" />
    <glyph glyph-name="uni00B3" unicode="&#xb3;" horiz-adv-x="306" 
d="M200 683q25 -11 39.5 -34.5t14.5 -61.5q0 -56 -32 -89t-82 -33q-24 0 -46.5 9t-42.5 25l15 53q19 -15 38 -24t34 -9q24 0 41.5 18.5t17.5 50.5q0 66 -83 66v53q35 0 53 20.5t18 43.5q0 26 -11.5 43t-33.5 17q-11 0 -26 -6.5t-40 -26.5l-14 53q49 34 84 34q42 0 71 -29.5
t29 -79.5q0 -26 -11 -50.5t-33 -42.5z" />
    <glyph glyph-name="acute" unicode="&#xb4;" horiz-adv-x="323" 
d="M248 680l-118 -136h-55q2 4 17 25.5t32 45.5t31 44t15 21h78z" />
    <glyph glyph-name="mu" unicode="&#xb5;" horiz-adv-x="398" 
d="M340 474v-474h-64l-4 41h-7q-16 -23 -41 -36t-51 -13q-19 0 -33 4.5t-24 12.5l6 -215h-75v680h75v-334q0 -45 17 -62.5t51 -17.5q26 0 45.5 17.5t30.5 35.5v361h74z" />
    <glyph glyph-name="paragraph" unicode="&#xb6;" horiz-adv-x="502" 
d="M472 680v-790h-73v725h-97v-725h-73v411q-39 0 -73.5 15t-60 40.5t-40.5 60.5t-15 74t15 73.5t40.5 60t60 40.5t73.5 15h243z" />
    <glyph glyph-name="periodcentered" unicode="&#xb7;" horiz-adv-x="469" 
d="M286 340q0 -29 -14 -45t-38 -16q-23 0 -37.5 16t-14.5 45q0 28 14.5 44t37.5 16q24 0 38 -16t14 -44z" />
    <glyph glyph-name="cedilla" unicode="&#xb8;" horiz-adv-x="323" 
d="M81 -202q2 8 6 19.5t7 19.5q26 -8 49 -8q17 0 30 10t13 24q0 9 -6.5 15.5t-17 10.5t-23 5.5t-24.5 1.5q4 7 9 18t10.5 22t9.5 20.5t6 13.5h44q-4 -9 -10.5 -24t-8.5 -18q30 -6 47 -23.5t17 -40.5q0 -40 -29.5 -59t-73.5 -19q-11 0 -27 3.5t-28 8.5z" />
    <glyph glyph-name="uni00B9" unicode="&#xb9;" horiz-adv-x="294" 
d="M182 517h71v-50h-200v50h70v288l-68 -63l-14 55l93 80h48v-360z" />
    <glyph glyph-name="ordmasculine" unicode="&#xba;" horiz-adv-x="301" 
d="M150 584q21 0 42 -9.5t37 -29t26 -49.5t10 -72t-10 -72.5t-26 -50t-37 -28.5t-42 -9t-42 9t-37 28.5t-26 50t-10 72.5t10 72t26 49.5t37 29t42 9.5zM150 314q27 0 42.5 30t15.5 80t-15.5 80t-42.5 30t-42.5 -30t-15.5 -80t15.5 -80t42.5 -30z" />
    <glyph glyph-name="guillemotright" unicode="&#xbb;" horiz-adv-x="522" 
d="M275 0l135 237l-135 237h84l134 -237l-134 -237h-84zM28 0l134 237l-134 237h83l134 -237l-134 -237h-83z" />
    <glyph glyph-name="onequarter" unicode="&#xbc;" horiz-adv-x="656" 
d="M182 319h70v-50h-199v50h69v289l-67 -63l-15 55q24 20 47 40l46 40h49v-361zM531 680h61l-385 -680h-60zM615 153v-50h-36v-103h-58v103h-133v43l137 264h54v-257h36zM521 253q0 16 0.5 30.5t1.5 27.5h-4q-14 -28 -26.5 -54.5t-22.5 -48t-16.5 -36.5t-8.5 -20h6.5t12 0.5
t12.5 0.5h9h36v100z" />
    <glyph glyph-name="onehalf" unicode="&#xbd;" horiz-adv-x="715" 
d="M182 320h71v-50h-200v50h70v288l-68 -63l-14 55l93 80h48v-360zM473 38q20 31 36 57q14 22 25.5 40.5t13.5 20.5q38 63 53 98.5t15 51.5q0 29 -14.5 43.5t-31.5 14.5q-14 0 -31.5 -12.5t-43.5 -42.5l-17 61q20 18 43 32.5t52 14.5q42 0 71 -28.5t29 -86.5
q0 -22 -17.5 -66.5t-58.5 -109.5q-12 -21 -22 -37q-8 -14 -15.5 -25.5t-8.5 -13.5h122v-50h-200v38zM148 0l384 680h61l-384 -680h-61z" />
    <glyph glyph-name="threequarters" unicode="&#xbe;" horiz-adv-x="621" 
d="M189 489q26 -14 40 -39.5t14 -69.5q-3 -52 -34.5 -82t-79.5 -30q-24 0 -46 9t-43 24l15 54q19 -15 38 -24t34 -9q24 0 41.5 18.5t17.5 50.5q0 26 -20 46t-63 20v52q35 0 53.5 21t18.5 44t-13 41t-33 18q-10 0 -25.5 -6.5t-40.5 -25.5q-3 13 -7 26t-7 26q47 35 84 35
q42 0 71 -29.5t29 -79.5q0 -26 -10.5 -50t-33.5 -40zM579 153v-50h-35v-103h-58v103h-133v43l137 264h54v-257h35zM486 253v30.5t1 27.5q-8 -14 -17.5 -33.5t-20 -40.5t-21 -43t-18.5 -42q1 0 15 0.5t19 0.5h42v100zM499 680h60l-384 -680h-61z" />
    <glyph glyph-name="questiondown" unicode="&#xbf;" horiz-adv-x="397" 
d="M207 -214q-38 0 -64.5 11.5t-43.5 30.5t-25 43.5t-8 51.5t7.5 51.5t19 47t25 44t25.5 42.5q14 22 23.5 38.5t15 34.5t8 40.5t2.5 57.5h53q1 -9 1.5 -18.5t0.5 -20.5q0 -36 -8.5 -76.5t-33.5 -79.5q-14 -22 -25 -40.5t-19 -36.5t-12.5 -36t-4.5 -39q0 -44 22.5 -61
t57.5 -17q19 0 36.5 6.5t29.5 14.5l18 -64q-14 -8 -41 -16.5t-60 -8.5zM163 421q0 29 13.5 45t38.5 16q23 0 37 -16t14 -45q0 -28 -14 -44t-37 -16q-25 0 -38.5 16t-13.5 44z" />
    <glyph glyph-name="Agrave" unicode="&#xc0;" horiz-adv-x="488" 
d="M389 0l-45 171h-201l-44 -171h-84l190 680h78l190 -680h-84zM326 243q-21 84 -38 153l-14 58t-13 52.5t-10 40.5t-4 22h-6q-1 -5 -4.5 -22t-9.5 -40.5t-13 -52.5l-14 -58q-17 -69 -38 -153h164zM201 884l94 -136h-56q-1 1 -18 20.5t-38 44t-39 46t-21 25.5h78z" />
    <glyph glyph-name="Aacute" unicode="&#xc1;" horiz-adv-x="488" 
d="M389 0l-45 171h-201l-44 -171h-84l190 680h78l190 -680h-84zM326 243q-21 84 -38 153l-14 58t-13 52.5t-10 40.5t-4 22h-6q-1 -5 -4.5 -22t-9.5 -40.5t-13 -52.5l-14 -58q-17 -69 -38 -153h164zM364 885l-118 -136h-55q2 4 17 25.5t32 45.5t31 44t15 21h78z" />
    <glyph glyph-name="Acircumflex" unicode="&#xc2;" horiz-adv-x="488" 
d="M389 0l-45 171h-201l-44 -171h-84l190 680h78l190 -680h-84zM326 243q-21 84 -38 153l-14 58t-13 52.5t-10 40.5t-4 22h-6q-1 -5 -4.5 -22t-9.5 -40.5t-13 -52.5l-14 -58q-17 -69 -38 -153h164zM274 884l89 -136h-66l-54 87l-54 -87h-66l88 136h63z" />
    <glyph glyph-name="Atilde" unicode="&#xc3;" horiz-adv-x="488" 
d="M389 0l-45 171h-201l-44 -171h-84l190 680h78l190 -680h-84zM326 243q-21 84 -38 153l-14 58t-13 52.5t-10 40.5t-4 22h-6q-1 -5 -4.5 -22t-9.5 -40.5t-13 -52.5l-14 -58q-17 -69 -38 -153h164zM186 864q21 0 37 -7t32 -18q15 -11 24.5 -15t17.5 -4q9 0 15.5 10t7.5 30
h51q-1 -48 -22.5 -70.5t-46.5 -22.5q-22 0 -37 6.5t-31 17.5t-25.5 15.5t-17.5 4.5t-15 -10.5t-8 -29.5h-51q0 47 22.5 70t46.5 23z" />
    <glyph glyph-name="Adieresis" unicode="&#xc4;" horiz-adv-x="488" 
d="M389 0l-45 171h-201l-44 -171h-84l190 680h78l190 -680h-84zM326 243q-21 84 -38 153l-14 58t-13 52.5t-10 40.5t-4 22h-6q-1 -5 -4.5 -22t-9.5 -40.5t-13 -52.5l-14 -58q-17 -69 -38 -153h164zM287 813q0 20 13 33.5t32 13.5t31.5 -13.5t12.5 -33.5t-13.5 -33t-32.5 -13
q-18 0 -30.5 13t-12.5 33zM113 813q0 20 12.5 33.5t32.5 13.5q18 0 31 -13.5t13 -33.5q0 -19 -13.5 -32.5t-31.5 -13.5q-19 0 -31.5 13t-12.5 33z" />
    <glyph glyph-name="Aring" unicode="&#xc5;" horiz-adv-x="488" 
d="M389 0l-45 171h-201l-44 -171h-84l190 680h78l190 -680h-84zM326 243q-21 84 -38 153l-14 58t-13 52.5t-10 40.5t-4 22h-6q-1 -5 -4.5 -22t-9.5 -40.5t-13 -52.5l-14 -58q-17 -69 -38 -153h164zM244 906q19 0 36 -7t30 -19.5t20 -29t7 -35.5t-7 -35.5t-20 -28.5t-30 -19
t-36 -7q-38 0 -65 26t-27 64t27 64.5t65 26.5zM244 763q20 0 35 15.5t15 36.5q0 22 -15 36.5t-35 14.5t-34.5 -14.5t-14.5 -36.5q0 -21 14.5 -36.5t34.5 -15.5z" />
    <glyph glyph-name="AE" unicode="&#xc6;" horiz-adv-x="679" 
d="M643 75v-75h-295v171h-175l-74 -171h-84l307 680h318v-75h-212v-214h189v-72h-189v-244h215zM348 243v326h-9q-2 -5 -8.5 -22t-16 -40.5t-22 -52.5t-24.5 -58q-29 -69 -64 -153h144z" />
    <glyph glyph-name="Ccedilla" unicode="&#xc7;" horiz-adv-x="477" 
d="M452 49q-31 -25 -69.5 -41t-86.5 -16q-55 0 -102 25t-81.5 70.5t-54 109.5t-19.5 143t19.5 143t54 109.5t81.5 70.5t102 25q48 0 86.5 -16t69.5 -41l-21 -80q-34 29 -66.5 45t-65.5 16q-40 0 -72 -21t-55 -57.5t-35.5 -86.5t-12.5 -107t12.5 -107t35.5 -86.5t55 -57.5
t72 -21q33 0 65.5 16t66.5 45zM208 -197q2 8 6 19.5t7 19.5q26 -8 49 -8q17 0 30 10t13 24q0 9 -6.5 15.5t-17 10.5t-23 5.5t-24.5 1.5q4 7 9 18t10.5 22t9.5 20.5t6 13.5h44q-4 -9 -10.5 -24t-8.5 -18q30 -6 47 -23.5t17 -40.5q0 -40 -29.5 -59t-73.5 -19q-11 0 -27 3.5
t-28 8.5z" />
    <glyph glyph-name="Egrave" unicode="&#xc8;" horiz-adv-x="400" 
d="M69 680h292v-75h-213v-214h190v-73h-190v-244h216v-74h-295v680zM208 883l94 -136h-56q-1 1 -18 20.5t-38 44t-39 46t-21 25.5h78z" />
    <glyph glyph-name="Eacute" unicode="&#xc9;" horiz-adv-x="400" 
d="M69 680h292v-75h-213v-214h190v-73h-190v-244h216v-74h-295v680zM307 883l-118 -136h-55q2 4 17 25.5t32 45.5t31 44t15 21h78z" />
    <glyph glyph-name="Ecircumflex" unicode="&#xca;" horiz-adv-x="400" 
d="M69 680h292v-75h-213v-214h190v-73h-190v-244h216v-74h-295v680zM249 884l89 -136h-66l-54 87l-54 -87h-66l88 136h63z" />
    <glyph glyph-name="Edieresis" unicode="&#xcb;" horiz-adv-x="400" 
d="M69 680h292v-75h-213v-214h190v-73h-190v-244h216v-74h-295v680zM256 814q0 20 13 33.5t32 13.5t31.5 -13.5t12.5 -33.5t-13.5 -33t-32.5 -13q-18 0 -30.5 13t-12.5 33zM82 814q0 20 12.5 33.5t32.5 13.5q18 0 31 -13.5t13 -33.5q0 -19 -13.5 -32.5t-31.5 -13.5
q-19 0 -31.5 13t-12.5 33z" />
    <glyph glyph-name="Igrave" unicode="&#xcc;" horiz-adv-x="319" 
d="M41 67h75v545h-75v68h228v-68h-74v-545h74v-67h-228v67zM129 884l94 -136h-56q-1 1 -18 20.5t-38 44t-39 46t-21 25.5h78z" />
    <glyph glyph-name="Iacute" unicode="&#xcd;" horiz-adv-x="319" 
d="M41 67h75v545h-75v68h228v-68h-74v-545h74v-67h-228v67zM263 884l-118 -136h-55q2 4 17 25.5t32 45.5t31 44t15 21h78z" />
    <glyph glyph-name="Icircumflex" unicode="&#xce;" horiz-adv-x="331" 
d="M46 67h75v545h-75v68h228v-68h-74v-545h74v-67h-228v67zM192 885l89 -136h-66l-54 87l-54 -87h-66l88 136h63z" />
    <glyph glyph-name="Idieresis" unicode="&#xcf;" horiz-adv-x="330" 
d="M46 67h75v545h-75v68h228v-68h-74v-545h74v-67h-228v67zM205 815q0 20 13 33.5t32 13.5t31.5 -13.5t12.5 -33.5t-13.5 -33t-32.5 -13q-18 0 -30.5 13t-12.5 33zM31 815q0 20 12.5 33.5t32.5 13.5q18 0 31 -13.5t13 -33.5q0 -19 -13.5 -32.5t-31.5 -13.5q-19 0 -31.5 13
t-12.5 33z" />
    <glyph glyph-name="Eth" unicode="&#xd0;" horiz-adv-x="531" 
d="M14 389h52v291q23 3 56 5.5t82 2.5q75 0 129 -27.5t89.5 -74.5t52.5 -111t17 -136t-17.5 -135.5t-53 -110.5t-90.5 -74t-130 -27q-48 0 -81.5 3t-53.5 5v314h-52v75zM215 68q90 0 142 70t52 201q0 134 -52 203.5t-142 69.5q-28 0 -45 -1.5t-25 -2.5v-219h55v-75h-55v-242
q9 -1 25.5 -2.5t44.5 -1.5z" />
    <glyph glyph-name="Ntilde" unicode="&#xd1;" horiz-adv-x="559" 
d="M489 680v-680h-86l-258 536h-4q1 -18 2 -37q1 -17 1.5 -37t0.5 -41v-421h-76v680h89q24 -52 56 -118.5t66.5 -138l69 -143t63.5 -132.5h4q0 11 -1 25q-1 11 -1.5 27t-1.5 34v446h76zM220 866q21 0 37 -7t32 -18q15 -11 24.5 -15t17.5 -4q9 0 15.5 10t7.5 30h51
q-1 -48 -22.5 -70.5t-46.5 -22.5q-22 0 -37 6.5t-31 17.5t-25.5 15.5t-17.5 4.5t-15 -10.5t-8 -29.5h-51q0 47 22.5 70t46.5 23z" />
    <glyph glyph-name="Ograve" unicode="&#xd2;" horiz-adv-x="571" 
d="M285 688q58 0 104 -27t78 -74t48.5 -110.5t16.5 -136.5q0 -74 -17 -137.5t-48.5 -110.5t-77.5 -73.5t-104 -26.5t-104 26.5t-77.5 73.5t-48 110.5t-16.5 137.5q0 73 16.5 136.5t48 110.5t77.5 74t104 27zM285 71q38 0 68.5 19.5t51.5 54.5t32.5 85t11.5 110t-11.5 110
t-32.5 85.5t-51.5 55t-68.5 19.5t-68 -19.5t-51 -55t-32 -85.5t-11 -110t11 -110t32 -85t51 -54.5t68 -19.5zM242 885l94 -136h-56q-1 1 -18 20.5t-38 44t-39 46t-21 25.5h78z" />
    <glyph glyph-name="Oacute" unicode="&#xd3;" horiz-adv-x="571" 
d="M285 688q58 0 104 -27t78 -74t48.5 -110.5t16.5 -136.5q0 -74 -17 -137.5t-48.5 -110.5t-77.5 -73.5t-104 -26.5t-104 26.5t-77.5 73.5t-48 110.5t-16.5 137.5q0 73 16.5 136.5t48 110.5t77.5 74t104 27zM285 71q38 0 68.5 19.5t51.5 54.5t32.5 85t11.5 110t-11.5 110
t-32.5 85.5t-51.5 55t-68.5 19.5t-68 -19.5t-51 -55t-32 -85.5t-11 -110t11 -110t32 -85t51 -54.5t68 -19.5zM405 884l-118 -136h-55q2 4 17 25.5t32 45.5t31 44t15 21h78z" />
    <glyph glyph-name="Ocircumflex" unicode="&#xd4;" horiz-adv-x="571" 
d="M285 688q58 0 104 -27t78 -74t48.5 -110.5t16.5 -136.5q0 -74 -17 -137.5t-48.5 -110.5t-77.5 -73.5t-104 -26.5t-104 26.5t-77.5 73.5t-48 110.5t-16.5 137.5q0 73 16.5 136.5t48 110.5t77.5 74t104 27zM285 71q38 0 68.5 19.5t51.5 54.5t32.5 85t11.5 110t-11.5 110
t-32.5 85.5t-51.5 55t-68.5 19.5t-68 -19.5t-51 -55t-32 -85.5t-11 -110t11 -110t32 -85t51 -54.5t68 -19.5zM317 884l89 -136h-66l-54 87l-54 -87h-66l88 136h63z" />
    <glyph glyph-name="Otilde" unicode="&#xd5;" horiz-adv-x="571" 
d="M285 688q58 0 104 -27t78 -74t48.5 -110.5t16.5 -136.5q0 -74 -17 -137.5t-48.5 -110.5t-77.5 -73.5t-104 -26.5t-104 26.5t-77.5 73.5t-48 110.5t-16.5 137.5q0 73 16.5 136.5t48 110.5t77.5 74t104 27zM285 71q38 0 68.5 19.5t51.5 54.5t32.5 85t11.5 110t-11.5 110
t-32.5 85.5t-51.5 55t-68.5 19.5t-68 -19.5t-51 -55t-32 -85.5t-11 -110t11 -110t32 -85t51 -54.5t68 -19.5zM230 865q21 0 37 -7t32 -18q15 -11 24.5 -15t17.5 -4q9 0 15.5 10t7.5 30h51q-1 -48 -22.5 -70.5t-46.5 -22.5q-22 0 -37 6.5t-31 17.5t-25.5 15.5t-17.5 4.5
t-15 -10.5t-8 -29.5h-51q0 47 22.5 70t46.5 23z" />
    <glyph glyph-name="Odieresis" unicode="&#xd6;" horiz-adv-x="571" 
d="M285 688q58 0 104 -27t78 -74t48.5 -110.5t16.5 -136.5q0 -74 -17 -137.5t-48.5 -110.5t-77.5 -73.5t-104 -26.5t-104 26.5t-77.5 73.5t-48 110.5t-16.5 137.5q0 73 16.5 136.5t48 110.5t77.5 74t104 27zM285 71q38 0 68.5 19.5t51.5 54.5t32.5 85t11.5 110t-11.5 110
t-32.5 85.5t-51.5 55t-68.5 19.5t-68 -19.5t-51 -55t-32 -85.5t-11 -110t11 -110t32 -85t51 -54.5t68 -19.5zM331 811q0 20 13 33.5t32 13.5t31.5 -13.5t12.5 -33.5t-13.5 -33t-32.5 -13q-18 0 -30.5 13t-12.5 33zM157 811q0 20 12.5 33.5t32.5 13.5q18 0 31 -13.5t13 -33.5
q0 -19 -13.5 -32.5t-31.5 -13.5q-19 0 -31.5 13t-12.5 33z" />
    <glyph glyph-name="multiply" unicode="&#xd7;" horiz-adv-x="562" 
d="M335 237q93 -94 187 -187l-50 -50l-188 186l-187 -186l-50 50q17 16 39.5 38.5l47 47l51 51l50.5 50.5l-188 186l50 51l187 -187l188 187l50 -51z" />
    <glyph glyph-name="Oslash" unicode="&#xd8;" horiz-adv-x="571" 
d="M446 615q42 -48 64 -119t22 -156q0 -74 -17 -137.5t-48.5 -110.5t-77.5 -73.5t-104 -26.5q-61 0 -110 32l-33 -73l-57 26l41 88q-42 48 -64.5 118.5t-22.5 156.5q0 73 16.5 136.5t48 110.5t77.5 74t104 27q62 0 111 -32l33 73l56 -26zM123 340q0 -58 11 -105.5t31 -82.5
l198 432q-35 26 -78 26q-38 0 -68 -19.5t-51 -55t-32 -85.5t-11 -110zM285 71q38 0 68.5 19.5t51.5 54.5t32.5 85t11.5 110q0 58 -11.5 105.5t-31.5 82.5l-198 -431q34 -26 77 -26z" />
    <glyph glyph-name="Ugrave" unicode="&#xd9;" horiz-adv-x="546" 
d="M477 680v-469q0 -50 -16 -90t-43.5 -69t-64.5 -44.5t-80 -15.5q-42 0 -79 15.5t-64.5 44.5t-43.5 69t-16 90v469h79v-471q0 -31 9.5 -56.5t26.5 -43.5t39.5 -28t48.5 -10t49 10t39.5 28t26 43.5t9.5 56.5v471h80zM238 884l94 -136h-56q-1 1 -18 20.5t-38 44t-39 46
t-21 25.5h78z" />
    <glyph glyph-name="Uacute" unicode="&#xda;" horiz-adv-x="546" 
d="M477 680v-469q0 -50 -16 -90t-43.5 -69t-64.5 -44.5t-80 -15.5q-42 0 -79 15.5t-64.5 44.5t-43.5 69t-16 90v469h79v-471q0 -31 9.5 -56.5t26.5 -43.5t39.5 -28t48.5 -10t49 10t39.5 28t26 43.5t9.5 56.5v471h80zM391 885l-118 -136h-55q2 4 17 25.5t32 45.5t31 44t15 21
h78z" />
    <glyph glyph-name="Ucircumflex" unicode="&#xdb;" horiz-adv-x="546" 
d="M477 680v-469q0 -50 -16 -90t-43.5 -69t-64.5 -44.5t-80 -15.5q-42 0 -79 15.5t-64.5 44.5t-43.5 69t-16 90v469h79v-471q0 -31 9.5 -56.5t26.5 -43.5t39.5 -28t48.5 -10t49 10t39.5 28t26 43.5t9.5 56.5v471h80zM304 884l89 -136h-66l-54 87l-54 -87h-66l88 136h63z" />
    <glyph glyph-name="Udieresis" unicode="&#xdc;" horiz-adv-x="546" 
d="M477 680v-469q0 -50 -16 -90t-43.5 -69t-64.5 -44.5t-80 -15.5q-42 0 -79 15.5t-64.5 44.5t-43.5 69t-16 90v469h79v-471q0 -31 9.5 -56.5t26.5 -43.5t39.5 -28t48.5 -10t49 10t39.5 28t26 43.5t9.5 56.5v471h80zM318 810q0 20 13 33.5t32 13.5t31.5 -13.5t12.5 -33.5
t-13.5 -33t-32.5 -13q-18 0 -30.5 13t-12.5 33zM144 810q0 20 12.5 33.5t32.5 13.5q18 0 31 -13.5t13 -33.5q0 -19 -13.5 -32.5t-31.5 -13.5q-19 0 -31.5 13t-12.5 33z" />
    <glyph glyph-name="Yacute" unicode="&#xdd;" horiz-adv-x="446" 
d="M263 293v-293h-80v295l-165 385h87q29 -72 54 -132q10 -26 20.5 -51.5t19 -47t14 -37.5t7.5 -23h5q1 7 7 23t14.5 37.5t18.5 47t21 51.5l55 132h87zM336 881l-118 -136h-55q2 4 17 25.5t32 45.5t31 44t15 21h78z" />
    <glyph glyph-name="Thorn" unicode="&#xde;" horiz-adv-x="434" 
d="M198 555q55 0 92.5 -18.5t60.5 -49.5t33 -70t10 -80q0 -51 -13 -90.5t-35.5 -67.5t-52.5 -42.5t-63 -14.5h-82v-122h-79v680h79v-126q11 0 22.5 0.5t27.5 0.5zM216 197q43 0 69.5 38.5t26.5 101.5q0 27 -5.5 52.5t-18 45.5t-32.5 32t-50 12q-25 0 -37 -1t-21 -3v-278h68z
" />
    <glyph glyph-name="germandbls" unicode="&#xdf;" horiz-adv-x="462" 
d="M429 136q0 -36 -10 -63t-27.5 -45t-40.5 -27t-48 -9q-37 0 -68 11t-60 28l23 70q23 -16 47 -28.5t51 -12.5q23 0 39 16.5t16 53.5q0 25 -14.5 46.5t-39.5 36.5q-25 13 -47 26t-38.5 27.5t-26 32.5t-9.5 42q0 22 11 39.5t27 32t35 27t35 25t27 26.5t11 32q0 24 -9.5 43.5
t-24.5 33t-33.5 21t-36.5 7.5q-39 0 -63.5 -23t-24.5 -82v-523h-74v523q0 42 12.5 73.5t34.5 51.5t51.5 30t63.5 10q33 0 63.5 -12t54.5 -34t38.5 -52t14.5 -67q0 -39 -21 -64t-46.5 -43.5t-46.5 -34t-21 -35.5q0 -28 77 -71q19 -11 36.5 -23.5t31 -29t22 -37.5t8.5 -49z
" />
    <glyph glyph-name="agrave" unicode="&#xe0;" 
d="M298 54h-7q-15 -30 -43 -45.5t-60 -15.5q-36 0 -64.5 17.5t-49 50t-31.5 77.5t-11 99q0 55 12 100t33.5 77t51 50t64.5 18q26 0 52 -9t51 -33l6 34h54v-289q0 -34 2.5 -67t5.5 -59q4 -31 8 -59h-64zM281 374q-11 14 -31.5 26.5t-43.5 12.5q-45 0 -70 -49t-25 -127
q0 -79 23.5 -128.5t68.5 -49.5q16 0 29.5 9t23 22t16 28.5t9.5 29.5v226zM173 680l94 -136h-56q-1 1 -18 20.5t-38 44t-39 46t-21 25.5h78z" />
    <glyph glyph-name="aacute" unicode="&#xe1;" 
d="M298 54h-7q-15 -30 -43 -45.5t-60 -15.5q-36 0 -64.5 17.5t-49 50t-31.5 77.5t-11 99q0 55 12 100t33.5 77t51 50t64.5 18q26 0 52 -9t51 -33l6 34h54v-289q0 -34 2.5 -67t5.5 -59q4 -31 8 -59h-64zM281 374q-11 14 -31.5 26.5t-43.5 12.5q-45 0 -70 -49t-25 -127
q0 -79 23.5 -128.5t68.5 -49.5q16 0 29.5 9t23 22t16 28.5t9.5 29.5v226zM317 680l-118 -136h-55q2 4 17 25.5t32 45.5t31 44t15 21h78z" />
    <glyph glyph-name="acircumflex" unicode="&#xe2;" 
d="M298 54h-7q-15 -30 -43 -45.5t-60 -15.5q-36 0 -64.5 17.5t-49 50t-31.5 77.5t-11 99q0 55 12 100t33.5 77t51 50t64.5 18q26 0 52 -9t51 -33l6 34h54v-289q0 -34 2.5 -67t5.5 -59q4 -31 8 -59h-64zM281 374q-11 14 -31.5 26.5t-43.5 12.5q-45 0 -70 -49t-25 -127
q0 -79 23.5 -128.5t68.5 -49.5q16 0 29.5 9t23 22t16 28.5t9.5 29.5v226zM235 680l89 -136h-66l-54 87l-54 -87h-66l88 136h63z" />
    <glyph glyph-name="atilde" unicode="&#xe3;" 
d="M298 54h-7q-15 -30 -43 -45.5t-60 -15.5q-36 0 -64.5 17.5t-49 50t-31.5 77.5t-11 99q0 55 12 100t33.5 77t51 50t64.5 18q26 0 52 -9t51 -33l6 34h54v-289q0 -34 2.5 -67t5.5 -59q4 -31 8 -59h-64zM281 374q-11 14 -31.5 26.5t-43.5 12.5q-45 0 -70 -49t-25 -127
q0 -79 23.5 -128.5t68.5 -49.5q16 0 29.5 9t23 22t16 28.5t9.5 29.5v226zM148 661q21 0 37 -7t32 -18q15 -11 24.5 -15t17.5 -4q9 0 15.5 10t7.5 30h51q-1 -48 -22.5 -70.5t-46.5 -22.5q-22 0 -37 6.5t-31 17.5t-25.5 15.5t-17.5 4.5t-15 -10.5t-8 -29.5h-51q0 47 22.5 70
t46.5 23z" />
    <glyph glyph-name="adieresis" unicode="&#xe4;" 
d="M298 54h-7q-15 -30 -43 -45.5t-60 -15.5q-36 0 -64.5 17.5t-49 50t-31.5 77.5t-11 99q0 55 12 100t33.5 77t51 50t64.5 18q26 0 52 -9t51 -33l6 34h54v-289q0 -34 2.5 -67t5.5 -59q4 -31 8 -59h-64zM281 374q-11 14 -31.5 26.5t-43.5 12.5q-45 0 -70 -49t-25 -127
q0 -79 23.5 -128.5t68.5 -49.5q16 0 29.5 9t23 22t16 28.5t9.5 29.5v226zM250 611q0 20 13 33.5t32 13.5t31.5 -13.5t12.5 -33.5t-13.5 -33t-32.5 -13q-18 0 -30.5 13t-12.5 33zM76 611q0 20 12.5 33.5t32.5 13.5q18 0 31 -13.5t13 -33.5q0 -19 -13.5 -32.5t-31.5 -13.5
q-19 0 -31.5 13t-12.5 33z" />
    <glyph glyph-name="aring" unicode="&#xe5;" 
d="M298 54h-7q-15 -30 -43 -45.5t-60 -15.5q-36 0 -64.5 17.5t-49 50t-31.5 77.5t-11 99q0 55 12 100t33.5 77t51 50t64.5 18q26 0 52 -9t51 -33l6 34h54v-289q0 -34 2.5 -67t5.5 -59q4 -31 8 -59h-64zM281 374q-11 14 -31.5 26.5t-43.5 12.5q-45 0 -70 -49t-25 -127
q0 -79 23.5 -128.5t68.5 -49.5q16 0 29.5 9t23 22t16 28.5t9.5 29.5v226zM207 703q19 0 36 -7t30 -19.5t20 -29t7 -35.5t-7 -35.5t-20 -28.5t-30 -19t-36 -7q-38 0 -65 26t-27 64t27 64.5t65 26.5zM207 560q20 0 35 15.5t15 36.5q0 22 -15 36.5t-35 14.5t-34.5 -14.5
t-14.5 -36.5q0 -21 14.5 -36.5t34.5 -15.5z" />
    <glyph glyph-name="ae" unicode="&#xe6;" horiz-adv-x="626" 
d="M354 218q0 -75 27.5 -117t69.5 -42q34 0 60.5 10.5t54.5 25.5l17 -64q-24 -15 -59.5 -27t-74.5 -12q-36 0 -70.5 18t-56.5 59h-5q-7 -13 -17.5 -26.5t-25.5 -25t-33.5 -18.5t-41.5 -7q-38 0 -69 18t-52.5 50t-33.5 77.5t-12 99.5q0 55 11.5 100t33 77t53 50t71.5 18
q28 0 62.5 -4.5t64.5 -14.5l5 -50h4q9 19 22.5 32t29 21t31.5 12t29 4q66 0 105 -51.5t39 -150.5q0 -16 -0.5 -31.5t-1.5 -30.5h-237zM280 403q-11 4 -32 7.5t-43 3.5q-45 0 -70 -49.5t-25 -128.5q0 -39 6.5 -71t18.5 -55.5t30 -36.5t41 -13q29 0 47 17t27 34v292zM523 275
v17q0 55 -18 91t-56 36q-21 0 -38 -11.5t-29 -31t-19.5 -45.5t-8.5 -56h169z" />
    <glyph glyph-name="ccedilla" unicode="&#xe7;" horiz-adv-x="354" 
d="M213 62q31 0 51.5 10t43.5 22l18 -66q-24 -15 -54 -25.5t-65 -10.5q-32 0 -63.5 14t-56 44t-39.5 76.5t-15 110.5t15 110.5t39.5 76.5t56 44t63.5 14q35 0 65 -10.5t54 -24.5l-18 -68q-23 14 -43.5 23.5t-51.5 9.5q-49 0 -75 -48t-26 -127t26 -127t75 -48zM117 -196
q2 8 6 19.5t7 19.5q26 -8 49 -8q17 0 30 10t13 24q0 9 -6.5 15.5t-17 10.5t-23 5.5t-24.5 1.5q4 7 9 18t10.5 22t9.5 20.5t6 13.5h44q-4 -9 -10.5 -24t-8.5 -18q30 -6 47 -23.5t17 -40.5q0 -40 -29.5 -59t-73.5 -19q-11 0 -27 3.5t-28 8.5z" />
    <glyph glyph-name="egrave" unicode="&#xe8;" horiz-adv-x="384" 
d="M207 419q-22 0 -38.5 -11.5t-28.5 -31t-19 -45.5t-10 -56h170q0 5 0.5 10t0.5 10q0 54 -19 89t-56 35zM209 59q35 0 61 10.5t53 25.5l18 -64q-24 -15 -59.5 -27t-74.5 -12q-32 0 -63.5 14t-56 44t-39.5 76.5t-15 110.5t15 110.5t39.5 76.5t56 44t63.5 14q66 0 105 -51.5
t39 -150.5q0 -16 -0.5 -31.5t-1.5 -30.5h-238q2 -70 27 -114.5t71 -44.5zM166 680l94 -136h-56q-1 1 -18 20.5t-38 44t-39 46t-21 25.5h78z" />
    <glyph glyph-name="eacute" unicode="&#xe9;" horiz-adv-x="384" 
d="M207 419q-22 0 -38.5 -11.5t-28.5 -31t-19 -45.5t-10 -56h170q0 5 0.5 10t0.5 10q0 54 -19 89t-56 35zM209 59q35 0 61 10.5t53 25.5l18 -64q-24 -15 -59.5 -27t-74.5 -12q-32 0 -63.5 14t-56 44t-39.5 76.5t-15 110.5t15 110.5t39.5 76.5t56 44t63.5 14q66 0 105 -51.5
t39 -150.5q0 -16 -0.5 -31.5t-1.5 -30.5h-238q2 -70 27 -114.5t71 -44.5zM323 680l-118 -136h-55q2 4 17 25.5t32 45.5t31 44t15 21h78z" />
    <glyph glyph-name="ecircumflex" unicode="&#xea;" horiz-adv-x="384" 
d="M207 419q-22 0 -38.5 -11.5t-28.5 -31t-19 -45.5t-10 -56h170q0 5 0.5 10t0.5 10q0 54 -19 89t-56 35zM209 59q35 0 61 10.5t53 25.5l18 -64q-24 -15 -59.5 -27t-74.5 -12q-32 0 -63.5 14t-56 44t-39.5 76.5t-15 110.5t15 110.5t39.5 76.5t56 44t63.5 14q66 0 105 -51.5
t39 -150.5q0 -16 -0.5 -31.5t-1.5 -30.5h-238q2 -70 27 -114.5t71 -44.5zM236 680l89 -136h-66l-54 87l-54 -87h-66l88 136h63z" />
    <glyph glyph-name="edieresis" unicode="&#xeb;" horiz-adv-x="384" 
d="M207 419q-22 0 -38.5 -11.5t-28.5 -31t-19 -45.5t-10 -56h170q0 5 0.5 10t0.5 10q0 54 -19 89t-56 35zM209 59q35 0 61 10.5t53 25.5l18 -64q-24 -15 -59.5 -27t-74.5 -12q-32 0 -63.5 14t-56 44t-39.5 76.5t-15 110.5t15 110.5t39.5 76.5t56 44t63.5 14q66 0 105 -51.5
t39 -150.5q0 -16 -0.5 -31.5t-1.5 -30.5h-238q2 -70 27 -114.5t71 -44.5zM250 611q0 20 13 33.5t32 13.5t31.5 -13.5t12.5 -33.5t-13.5 -33t-32.5 -13q-18 0 -30.5 13t-12.5 33zM76 611q0 20 12.5 33.5t32.5 13.5q18 0 31 -13.5t13 -33.5q0 -19 -13.5 -32.5t-31.5 -13.5
q-19 0 -31.5 13t-12.5 33z" />
    <glyph glyph-name="igrave" unicode="&#xec;" horiz-adv-x="178" 
d="M37 680l94 -136h-56q-1 1 -18 20.5t-38 44t-39 46t-21 25.5h78zM124 0h-74v474h74v-474z" />
    <glyph glyph-name="iacute" unicode="&#xed;" horiz-adv-x="178" 
d="M209 680l-118 -136h-55q2 4 17 25.5t32 45.5t31 44t15 21h78zM124 0h-74v474h74v-474z" />
    <glyph glyph-name="icircumflex" unicode="&#xee;" horiz-adv-x="178" 
d="M124 0h-74v474h74v-474zM116 680l89 -136h-66l-54 87l-54 -87h-66l88 136h63z" />
    <glyph glyph-name="idieresis" unicode="&#xef;" horiz-adv-x="178" 
d="M128 611q0 20 13 33.5t32 13.5t31.5 -13.5t12.5 -33.5t-13.5 -33t-32.5 -13q-18 0 -30.5 13t-12.5 33zM-46 611q0 20 12.5 33.5t32.5 13.5q18 0 31 -13.5t13 -33.5q0 -19 -13.5 -32.5t-31.5 -13.5q-19 0 -31.5 13t-12.5 33zM124 0h-74v474h74v-474z" />
    <glyph glyph-name="eth" unicode="&#xf0;" horiz-adv-x="421" 
d="M270 595q46 -61 77.5 -146t31.5 -201q0 -64 -14.5 -112t-39 -80t-56 -48t-64.5 -16q-31 0 -62 15t-56 46t-40.5 76.5t-15.5 107.5q0 61 15 107t38 76.5t51.5 46t55.5 15.5q39 0 74 -29l4 4q-14 31 -30 57.5t-33 49.5l-106 -50l-19 39l95 45q-19 21 -37.5 37t-38.5 30
q14 11 26.5 21t25.5 21q22 -16 44.5 -35.5t42.5 -42.5l98 47l18 -40zM205 60q22 0 40 13.5t30.5 37t19 56t6.5 70.5q0 37 -5 69t-16.5 56t-29.5 37.5t-45 13.5q-22 0 -39.5 -13.5t-30 -37t-19 -55.5t-6.5 -70t6.5 -70.5t19 -56t30 -37t39.5 -13.5z" />
    <glyph glyph-name="ntilde" unicode="&#xf1;" horiz-adv-x="405" 
d="M223 482q63 0 94 -34.5t31 -110.5v-337h-75v333q0 45 -17 62.5t-51 17.5q-26 0 -45 -17.5t-30 -35.5v-360h-74v474h63q2 -11 3 -21t2 -21h7q16 23 41 36.5t51 13.5zM150 661q21 0 37 -7t32 -18q15 -11 24.5 -15t17.5 -4q9 0 15.5 10t7.5 30h51q-1 -48 -22.5 -70.5
t-46.5 -22.5q-22 0 -37 6.5t-31 17.5t-25.5 15.5t-17.5 4.5t-15 -10.5t-8 -29.5h-51q0 47 22.5 70t46.5 23z" />
    <glyph glyph-name="ograve" unicode="&#xf2;" 
d="M206 482q32 0 63 -14t55.5 -44t39.5 -76.5t15 -110.5t-15 -110.5t-39.5 -76.5t-55.5 -44t-63 -14t-63.5 14t-56 44t-39.5 76.5t-15 110.5t15 110.5t39.5 76.5t56 44t63.5 14zM206 60q45 0 70.5 48.5t25.5 128.5t-25.5 128.5t-70.5 48.5q-46 0 -71 -48.5t-25 -128.5
t25 -128.5t71 -48.5zM166 673l94 -136h-56q-1 1 -18 20.5t-38 44t-39 46t-21 25.5h78z" />
    <glyph glyph-name="oacute" unicode="&#xf3;" 
d="M206 482q32 0 63 -14t55.5 -44t39.5 -76.5t15 -110.5t-15 -110.5t-39.5 -76.5t-55.5 -44t-63 -14t-63.5 14t-56 44t-39.5 76.5t-15 110.5t15 110.5t39.5 76.5t56 44t63.5 14zM206 60q45 0 70.5 48.5t25.5 128.5t-25.5 128.5t-70.5 48.5q-46 0 -71 -48.5t-25 -128.5
t25 -128.5t71 -48.5zM326 681l-118 -136h-55q2 4 17 25.5t32 45.5t31 44t15 21h78z" />
    <glyph glyph-name="ocircumflex" unicode="&#xf4;" 
d="M206 482q32 0 63 -14t55.5 -44t39.5 -76.5t15 -110.5t-15 -110.5t-39.5 -76.5t-55.5 -44t-63 -14t-63.5 14t-56 44t-39.5 76.5t-15 110.5t15 110.5t39.5 76.5t56 44t63.5 14zM206 60q45 0 70.5 48.5t25.5 128.5t-25.5 128.5t-70.5 48.5q-46 0 -71 -48.5t-25 -128.5
t25 -128.5t71 -48.5zM236 680l89 -136h-66l-54 87l-54 -87h-66l88 136h63z" />
    <glyph glyph-name="otilde" unicode="&#xf5;" 
d="M206 482q32 0 63 -14t55.5 -44t39.5 -76.5t15 -110.5t-15 -110.5t-39.5 -76.5t-55.5 -44t-63 -14t-63.5 14t-56 44t-39.5 76.5t-15 110.5t15 110.5t39.5 76.5t56 44t63.5 14zM206 60q45 0 70.5 48.5t25.5 128.5t-25.5 128.5t-70.5 48.5q-46 0 -71 -48.5t-25 -128.5
t25 -128.5t71 -48.5zM147 661q21 0 37 -7t32 -18q15 -11 24.5 -15t17.5 -4q9 0 15.5 10t7.5 30h51q-1 -48 -22.5 -70.5t-46.5 -22.5q-22 0 -37 6.5t-31 17.5t-25.5 15.5t-17.5 4.5t-15 -10.5t-8 -29.5h-51q0 47 22.5 70t46.5 23z" />
    <glyph glyph-name="odieresis" unicode="&#xf6;" 
d="M206 482q32 0 63 -14t55.5 -44t39.5 -76.5t15 -110.5t-15 -110.5t-39.5 -76.5t-55.5 -44t-63 -14t-63.5 14t-56 44t-39.5 76.5t-15 110.5t15 110.5t39.5 76.5t56 44t63.5 14zM206 60q45 0 70.5 48.5t25.5 128.5t-25.5 128.5t-70.5 48.5q-46 0 -71 -48.5t-25 -128.5
t25 -128.5t71 -48.5zM249 611q0 20 13 33.5t32 13.5t31.5 -13.5t12.5 -33.5t-13.5 -33t-32.5 -13q-18 0 -30.5 13t-12.5 33zM75 611q0 20 12.5 33.5t32.5 13.5q18 0 31 -13.5t13 -33.5q0 -19 -13.5 -32.5t-31.5 -13.5q-19 0 -31.5 13t-12.5 33z" />
    <glyph glyph-name="divide" unicode="&#xf7;" horiz-adv-x="540" 
d="M507 273v-72h-474v72h474zM322 68q0 -23 -14 -37t-38 -14q-23 0 -37.5 14t-14.5 37q0 24 14.5 38t37.5 14q24 0 38 -14t14 -38zM322 405q0 -23 -14 -37t-38 -14q-23 0 -37.5 14t-14.5 37t14.5 37.5t37.5 14.5q24 0 38 -14.5t14 -37.5z" />
    <glyph glyph-name="oslash" unicode="&#xf8;" 
d="M322 430q26 -31 41.5 -78.5t15.5 -113.5q0 -64 -15 -110.5t-39.5 -76.5t-55.5 -44.5t-63 -14.5q-20 0 -38.5 5.5t-36.5 15.5l-29 -64l-48 22l34 75q-26 31 -41 78.5t-15 113.5q0 64 15 110t39.5 76t56 44t63.5 14q18 0 37 -4t36 -14l30 63l48 -22zM110 238q0 -64 19 -108
l123 268q-20 16 -46 16q-46 0 -71 -48t-25 -128zM206 60q45 0 70 49t25 129q0 32 -4.5 59.5t-15.5 49.5l-122 -268q11 -8 22 -13.5t25 -5.5z" />
    <glyph glyph-name="ugrave" unicode="&#xf9;" horiz-adv-x="405" 
d="M181 -8q-63 0 -94 34t-31 110v338h74v-334q0 -45 17 -62.5t52 -17.5q26 0 45.5 17.5t28.5 35.5v361h75v-474h-63q-1 11 -2 20.5t-3 20.5h-7q-15 -23 -40.5 -36t-51.5 -13zM155 680l94 -136h-56q-1 1 -18 20.5t-38 44t-39 46t-21 25.5h78z" />
    <glyph glyph-name="uacute" unicode="&#xfa;" horiz-adv-x="405" 
d="M181 -8q-63 0 -94 34t-31 110v338h74v-334q0 -45 17 -62.5t52 -17.5q26 0 45.5 17.5t28.5 35.5v361h75v-474h-63q-1 11 -2 20.5t-3 20.5h-7q-15 -23 -40.5 -36t-51.5 -13zM314 681l-118 -136h-55q2 4 17 25.5t32 45.5t31 44t15 21h78z" />
    <glyph glyph-name="ucircumflex" unicode="&#xfb;" horiz-adv-x="405" 
d="M181 -8q-63 0 -94 34t-31 110v338h74v-334q0 -45 17 -62.5t52 -17.5q26 0 45.5 17.5t28.5 35.5v361h75v-474h-63q-1 11 -2 20.5t-3 20.5h-7q-15 -23 -40.5 -36t-51.5 -13zM226 680l89 -136h-66l-54 87l-54 -87h-66l88 136h63z" />
    <glyph glyph-name="udieresis" unicode="&#xfc;" horiz-adv-x="405" 
d="M181 -8q-63 0 -94 34t-31 110v338h74v-334q0 -45 17 -62.5t52 -17.5q26 0 45.5 17.5t28.5 35.5v361h75v-474h-63q-1 11 -2 20.5t-3 20.5h-7q-15 -23 -40.5 -36t-51.5 -13zM241 611q0 20 13 33.5t32 13.5t31.5 -13.5t12.5 -33.5t-13.5 -33t-32.5 -13q-18 0 -30.5 13
t-12.5 33zM67 611q0 20 12.5 33.5t32.5 13.5q18 0 31 -13.5t13 -33.5q0 -19 -13.5 -32.5t-31.5 -13.5q-19 0 -31.5 13t-12.5 33z" />
    <glyph glyph-name="yacute" unicode="&#xfd;" horiz-adv-x="366" 
d="M349 474l-153 -539q-22 -63 -62 -96.5t-102 -52.5l-17 68q44 14 76 42t46 83l8 31q-32 116 -64.5 231.5t-65.5 232.5h79q7 -27 16.5 -61.5t18.5 -71.5t17.5 -73.5t15.5 -67t11.5 -52.5t5.5 -29h6q1 7 5 29t11.5 52.5t16 67t18 73.5t18.5 71.5t16 61.5h79zM304 680
l-118 -136h-55q2 4 17 25.5t32 45.5t31 44t15 21h78z" />
    <glyph glyph-name="thorn" unicode="&#xfe;" horiz-adv-x="411" 
d="M211 482q39 0 69.5 -18t52.5 -50.5t33.5 -78t11.5 -99.5q0 -55 -11.5 -100t-33 -77t-51.5 -49.5t-67 -17.5q-21 0 -42 6.5t-43 25.5v-230h-74v886h74v-234h4q18 20 37.5 28t39.5 8zM206 60q45 0 70 49t25 128q0 78 -25.5 127t-70.5 49q-29 0 -47 -17t-28 -34v-263
q11 -14 31.5 -26.5t44.5 -12.5z" />
    <glyph glyph-name="ydieresis" unicode="&#xff;" horiz-adv-x="366" 
d="M349 474l-153 -539q-22 -63 -62 -96.5t-102 -52.5l-17 68q44 14 76 42t46 83l8 31q-32 116 -64.5 231.5t-65.5 232.5h79q7 -27 16.5 -61.5t18.5 -71.5t17.5 -73.5t15.5 -67t11.5 -52.5t5.5 -29h6q1 7 5 29t11.5 52.5t16 67t18 73.5t18.5 71.5t16 61.5h79zM223 611
q0 20 13 33.5t32 13.5t31.5 -13.5t12.5 -33.5t-13.5 -33t-32.5 -13q-18 0 -30.5 13t-12.5 33zM49 611q0 20 12.5 33.5t32.5 13.5q18 0 31 -13.5t13 -33.5q0 -19 -13.5 -32.5t-31.5 -13.5q-19 0 -31.5 13t-12.5 33z" />
    <glyph glyph-name="dotlessi" unicode="&#x131;" horiz-adv-x="186" 
d="M130 0h-74v474h74v-474z" />
    <glyph glyph-name="OE" unicode="&#x152;" horiz-adv-x="780" 
d="M744 75v-75h-295v100q-25 -51 -66 -79.5t-98 -28.5q-58 0 -104 26.5t-77.5 73.5t-48 110.5t-16.5 137.5q0 73 16.5 136.5t48 110.5t77.5 74t104 27q57 0 98 -28.5t66 -79.5v100h291v-74h-212v-215h189v-73h-189v-243h216zM285 71q38 0 68.5 19.5t51.5 54.5t32.5 85
t11.5 110t-11.5 110t-32.5 85.5t-51.5 55t-68.5 19.5t-68 -19.5t-51 -55t-32 -85.5t-11 -110t11 -110t32 -85t51 -54.5t68 -19.5z" />
    <glyph glyph-name="oe" unicode="&#x153;" horiz-adv-x="652" 
d="M619 280q0 -16 -0.5 -31.5t-1.5 -30.5h-239q2 -70 27.5 -114.5t71.5 -44.5q34 0 61 10.5t54 25.5l18 -64q-25 -15 -61 -27t-74 -12q-43 0 -78 27.5t-56 80.5h-4q-20 -53 -54 -80.5t-77 -27.5q-32 0 -63.5 14t-56 44t-39.5 76.5t-15 110.5t15 110.5t39.5 76.5t56 44
t63.5 14q43 0 77 -27.5t54 -80.5h4q21 53 56 80.5t78 27.5q66 0 105 -51.5t39 -150.5zM206 60q45 0 70 48.5t25 128.5t-25 128.5t-70 48.5q-46 0 -71 -48.5t-25 -128.5t25 -128.5t71 -48.5zM549 275q0 5 0.5 9.5t0.5 9.5q0 54 -19 89.5t-56 35.5q-21 0 -38 -11.5t-29 -31
t-19.5 -45.5t-9.5 -56h170z" />
    <glyph glyph-name="Scaron" unicode="&#x160;" horiz-adv-x="389" 
d="M213 393q21 -16 45.5 -35.5t44.5 -45.5t33.5 -58.5t13.5 -74.5q0 -44 -12.5 -78.5t-34 -58.5t-50.5 -37t-61 -13q-51 0 -89 17.5t-72 48.5l27 77q66 -61 118 -65q35 0 62.5 25t27.5 79q0 36 -16 62.5t-40.5 49t-53 44t-53 47t-40.5 59t-16 80.5q0 42 12.5 74t33.5 54
t49 33t58 11q37 0 67.5 -13t59.5 -36l-20 -76q-32 26 -59.5 37.5t-45.5 11.5q-12 0 -25.5 -6t-24.5 -17.5t-18 -29t-7 -40.5q0 -21 8 -39.5t20.5 -34t27.5 -28.5t30 -24zM172 750q-5 8 -17 26t-25.5 38.5t-26.5 40.5t-20 31h67l54 -89l53 89h67l-89 -136h-63z" />
    <glyph glyph-name="scaron" unicode="&#x161;" horiz-adv-x="304" 
d="M273 136q0 -36 -10.5 -63t-28 -45t-40.5 -27t-49 -9q-36 0 -67 11t-60 28l22 70q24 -16 48 -28.5t51 -12.5q23 0 39 16.5t16 53.5q0 29 -19 46.5t-42 31.5q-17 10 -35 23t-33.5 30t-25.5 38t-10 48q0 33 10 58t26.5 42.5t38 26t45.5 8.5q27 0 55.5 -11t54.5 -26l-20 -70
q-23 17 -45.5 28t-39.5 11q-20 0 -33 -16.5t-13 -42.5q0 -27 19 -46t48 -38q17 -11 34.5 -23t31.5 -27.5t23 -36t9 -48.5zM119 544q-5 8 -17 26t-25.5 38.5t-26.5 40.5t-20 31h67l54 -89l53 89h67l-89 -136h-63z" />
    <glyph glyph-name="Ydieresis" unicode="&#x178;" horiz-adv-x="446" 
d="M263 293v-293h-80v295l-165 385h87q29 -72 54 -132q10 -26 20.5 -51.5t19 -47t14 -37.5t7.5 -23h5q1 7 7 23t14.5 37.5t18.5 47t21 51.5l55 132h87zM265 813q0 20 13 33.5t32 13.5t31.5 -13.5t12.5 -33.5t-13.5 -33t-32.5 -13q-18 0 -30.5 13t-12.5 33zM93 813
q0 20 12.5 33.5t31.5 13.5q18 0 31 -13.5t13 -33.5q0 -19 -13.5 -32.5t-31.5 -13.5t-30.5 13t-12.5 33z" />
    <glyph glyph-name="Zcaron" unicode="&#x17d;" horiz-adv-x="459" 
d="M138 81v-6h282v-75h-381v55l268 546v7l-53 -3h-207v75h359v-55l-241 -498zM194 749q-5 8 -17 26t-25.5 38.5t-26.5 40.5t-20 31h67l54 -89l53 89h67l-89 -136h-63z" />
    <glyph glyph-name="zcaron" unicode="&#x17e;" horiz-adv-x="346" 
d="M128 64h186v-64h-283v35q46 94 91 187t91 187h-177v65h269v-45zM140 544q-5 8 -17 26t-25.5 38.5t-26.5 40.5t-20 31h67l54 -89l53 89h67l-89 -136h-63z" />
    <glyph glyph-name="florin" unicode="&#x192;" horiz-adv-x="414" 
d="M393 645q5 -1 9 -1.5t8 -2.5l-18 -67q-6 1 -12.5 2.5t-12.5 1.5q-27 0 -47 -16t-25 -43l-29 -166h79v-63h-89l-62 -354q-9 -53 -49.5 -83.5t-93.5 -30.5q-12 0 -23.5 2t-23.5 5l18 68q5 -3 12 -4t13 -1q26 0 46.5 16t25.5 42l58 340h-75v63h86l32 181q3 25 16 46t32.5 36
t44 23.5t51.5 8.5q12 0 29 -3z" />
    <glyph glyph-name="circumflex" unicode="&#x2c6;" horiz-adv-x="319" 
d="M189 680l89 -136h-66l-54 87l-54 -87h-66l88 136h63z" />
    <glyph glyph-name="tilde" unicode="&#x2dc;" horiz-adv-x="319" 
d="M101 661q21 0 37 -7t32 -18q15 -11 24.5 -15t17.5 -4q9 0 15.5 10t7.5 30h51q-1 -48 -22.5 -70.5t-46.5 -22.5q-22 0 -37 6.5t-31 17.5t-25.5 15.5t-17.5 4.5t-15 -10.5t-8 -29.5h-51q0 47 22.5 70t46.5 23z" />
    <glyph glyph-name="endash" unicode="&#x2013;" horiz-adv-x="442" 
d="M419 205h-395v63h395v-63z" />
    <glyph glyph-name="emdash" unicode="&#x2014;" horiz-adv-x="724" 
d="M701 205h-677v63h677v-63z" />
    <glyph glyph-name="quoteleft" unicode="&#x2018;" horiz-adv-x="215" 
d="M185 674q-26 -47 -45 -101.5t-19 -111.5q0 -19 -10.5 -36.5t-34.5 -17.5q-23 0 -33.5 17.5t-10.5 36.5q0 25 9.5 55t24.5 61t34 61.5t38 58.5z" />
    <glyph glyph-name="quoteright" unicode="&#x2019;" horiz-adv-x="215" 
d="M28 421q27 47 46 101.5t19 111.5q0 19 10.5 36.5t34.5 17.5q23 0 33.5 -17.5t10.5 -36.5q0 -26 -9.5 -55.5t-24.5 -60.5t-34.5 -61.5t-38.5 -58.5z" />
    <glyph glyph-name="quotesinglbase" unicode="&#x201a;" horiz-adv-x="215" 
d="M28 -156q27 47 46 101.5t19 111.5q0 19 10.5 36.5t34.5 17.5q23 0 33.5 -17.5t10.5 -36.5q0 -26 -9.5 -55.5t-24.5 -60.5t-34.5 -61.5t-38.5 -58.5z" />
    <glyph glyph-name="quotedblleft" unicode="&#x201c;" horiz-adv-x="377" 
d="M185 674q-26 -47 -45 -101.5t-19 -111.5q0 -19 -10.5 -36.5t-34.5 -17.5q-23 0 -33.5 17.5t-10.5 36.5q0 25 9.5 55t24.5 61t34 61.5t38 58.5zM347 674q-27 -47 -46 -101.5t-19 -111.5q0 -19 -10.5 -36.5t-34.5 -17.5q-23 0 -33.5 17.5t-10.5 36.5q0 25 9.5 55t24.5 61
t34 61.5t39 58.5z" />
    <glyph glyph-name="quotedblright" unicode="&#x201d;" horiz-adv-x="377" 
d="M190 421q26 47 45 101.5t19 111.5q0 19 10.5 36.5t34.5 17.5q23 0 33.5 -17.5t10.5 -36.5q0 -26 -9.5 -55.5t-24.5 -60.5t-34 -61.5t-38 -58.5zM28 421q27 47 46 101.5t19 111.5q0 19 10.5 36.5t34.5 17.5q23 0 33.5 -17.5t10.5 -36.5q0 -26 -9.5 -55.5t-24.5 -60.5
t-34.5 -61.5t-38.5 -58.5z" />
    <glyph glyph-name="quotedblbase" unicode="&#x201e;" horiz-adv-x="377" 
d="M190 -156q26 47 45 101.5t19 111.5q0 19 10.5 36.5t34.5 17.5q23 0 33.5 -17.5t10.5 -36.5q0 -26 -9.5 -55.5t-24.5 -60.5t-34 -61.5t-38 -58.5zM28 -156q27 47 46 101.5t19 111.5q0 19 10.5 36.5t34.5 17.5q23 0 33.5 -17.5t10.5 -36.5q0 -26 -9.5 -55.5t-24.5 -60.5
t-34.5 -61.5t-38.5 -58.5z" />
    <glyph glyph-name="dagger" unicode="&#x2020;" horiz-adv-x="398" 
d="M365 487v-61l-134 5l4 -539h-71l4 539l-135 -5v61l135 -4l-4 197h71l-4 -197l134 4v0z" />
    <glyph glyph-name="daggerdbl" unicode="&#x2021;" horiz-adv-x="398" 
d="M365 426l-135 5v-290l135 4v-60l-135 4l5 -197h-70l3 197l-135 -4v60l135 -4v290l-135 -5v61l135 -4l-4 197h71l-5 -197l135 4v-61v0z" />
    <glyph glyph-name="bullet" unicode="&#x2022;" horiz-adv-x="355" 
d="M176 471q27 0 51 -10.5t42 -28t28 -41.5t10 -51t-10 -51.5t-28 -42.5t-42 -28.5t-51 -10.5t-50 10.5t-40.5 28.5t-27.5 42.5t-10 51.5t10 51t27.5 41.5t40.5 28t50 10.5z" />
    <glyph glyph-name="ellipsis" unicode="&#x2026;" horiz-adv-x="762" 
d="M178 53q0 -29 -14 -45t-38 -16q-23 0 -37 16t-14 45q0 28 14 44t37 16q24 0 38 -16t14 -44zM432 53q0 -29 -13.5 -45t-38.5 -16q-23 0 -37 16t-14 45q0 28 14 44t37 16q25 0 38.5 -16t13.5 -44zM686 53q0 -29 -14 -45t-37 -16t-37.5 16t-14.5 45q0 28 14.5 44t37.5 16
t37 -16t14 -44z" />
    <glyph glyph-name="perthousand" unicode="&#x2030;" horiz-adv-x="968" 
d="M124 0l385 680h59l-384 -680h-60zM153 268q-27 0 -48 15.5t-35.5 43t-22 66t-7.5 85.5q0 46 7.5 85t21.5 66.5t35.5 43t48.5 15.5t47.5 -15.5t35 -43t22 -66.5t7.5 -85q0 -47 -7.5 -85.5t-22 -66t-35 -43t-47.5 -15.5zM153 634q-13 0 -23.5 -12.5t-17.5 -33.5
t-10.5 -49.5t-3.5 -60.5t3.5 -60.5t10.5 -49.5t17.5 -33t23.5 -12q12 0 22 12t17 33t11 49.5t4 60.5t-4 60.5t-11 49.5t-17 33.5t-22 12.5zM540 -8q-27 0 -48 15.5t-35.5 43t-22 66t-7.5 85.5q0 46 7.5 85t22 66.5t35.5 43t48 15.5t48.5 -15.5t35.5 -43t21.5 -66.5t7.5 -85
q0 -47 -7.5 -85.5t-22 -66t-35.5 -43t-48 -15.5zM540 358q-12 0 -22 -12.5t-17 -33.5t-11 -49.5t-4 -60.5t4 -60.5t11 -49.5t17 -33t22 -12q13 0 23 12t17 33t11 49.5t4 60.5t-4 60.5t-11 49.5t-17 33.5t-23 12.5zM816 -8q-26 0 -47 15.5t-35 43t-21.5 66t-7.5 85.5
q0 46 7.5 85t21.5 66.5t35 43t47 15.5q27 0 48.5 -15.5t35.5 -43t21.5 -66.5t7.5 -85q0 -47 -7.5 -85.5t-22 -66t-35.5 -43t-48 -15.5zM816 358q-12 0 -22 -12.5t-17 -33.5t-10.5 -49.5t-3.5 -60.5t3.5 -60.5t10.5 -49.5t17 -33t22 -12q13 0 23.5 12t17.5 33t10.5 49.5
t3.5 60.5t-3.5 60.5t-10.5 49.5t-17.5 33.5t-23.5 12.5z" />
    <glyph glyph-name="guilsinglleft" unicode="&#x2039;" horiz-adv-x="263" 
d="M156 0l-134 237l134 237h83l-134 -237l134 -237h-83z" />
    <glyph glyph-name="guilsinglright" unicode="&#x203a;" horiz-adv-x="263" 
d="M22 0l134 237l-134 237h83l134 -237l-134 -237h-83z" />
    <glyph glyph-name="Euro" unicode="&#x20ac;" horiz-adv-x="462" 
d="M436 17q-22 -11 -48 -18t-55 -7q-47 0 -88.5 14t-74 44t-55.5 77t-33 114h-50v54h45v90h-45v55h50q10 67 33 114t55.5 77t74 43.5t88.5 13.5q29 0 55 -6.5t48 -17.5l-20 -78q-46 26 -89 26q-63 0 -104.5 -42t-55.5 -130h205v-55h-210q-1 -11 -1.5 -22t-0.5 -23
q0 -11 0.5 -22.5t1.5 -22.5h210v-54h-205q14 -88 55.5 -130.5t104.5 -42.5q21 0 43.5 7t45.5 20z" />
    <glyph glyph-name="trademark" unicode="&#x2122;" horiz-adv-x="471" 
d="M186 640h-60v-241h-47v241h-61v40h168v-40zM420 399h-45q-1 43 -2 82q-1 33 -2 65t-2 47q-5 -12 -13 -28t-16.5 -33.5t-16 -33.5t-12.5 -26l-60 118q-1 -21 -1 -53.5t-1 -63.5q-1 -36 -2 -74h-46l7 281h48l55 -113q4 10 11.5 25t15 31.5t15 31.5l12.5 25h48z" />
    </font>
</defs>
</svg>
